<svg xmlns="http://www.w3.org/2000/svg" width="28.5" height="30.692" viewBox="0 0 28.5 30.692"><defs><style>.a{fill:#fff;}</style></defs><path class="a" d="M66.192,28.5h4.933V23.567H66.192Zm6.029,0H77.7V23.567H72.221Zm-6.029-6.029h4.933V16.99H66.192Zm6.029,0H77.7V16.99H72.221Zm-6.029-6.577h4.933V10.962H66.192ZM78.8,28.5h5.481V23.567H78.8ZM72.221,15.894H77.7V10.962H72.221ZM85.375,28.5h4.933V23.567H85.375ZM78.8,22.471h5.481V16.99H78.8Zm-6.029-14.8V2.74a.556.556,0,0,0-.548-.548h-1.1a.556.556,0,0,0-.548.548V7.673a.556.556,0,0,0,.548.548h1.1a.556.556,0,0,0,.548-.548Zm12.606,14.8h4.933V16.99H85.375ZM78.8,15.894h5.481V10.962H78.8Zm6.577,0h4.933V10.962H85.375Zm.548-8.221V2.74a.556.556,0,0,0-.548-.548h-1.1a.556.556,0,0,0-.548.548V7.673a.556.556,0,0,0,.548.548h1.1a.556.556,0,0,0,.548-.548Zm6.577-1.1V28.5a2.223,2.223,0,0,1-2.192,2.192H66.192A2.223,2.223,0,0,1,64,28.5V6.577a2.107,2.107,0,0,1,.651-1.541,2.107,2.107,0,0,1,1.541-.651h2.192V2.74A2.639,2.639,0,0,1,69.19.8,2.639,2.639,0,0,1,71.125,0h1.1a2.639,2.639,0,0,1,1.935.8,2.639,2.639,0,0,1,.8,1.935V4.385h6.577V2.74A2.639,2.639,0,0,1,82.343.8,2.639,2.639,0,0,1,84.279,0h1.1A2.639,2.639,0,0,1,87.31.8a2.639,2.639,0,0,1,.8,1.935V4.385h2.192a2.107,2.107,0,0,1,1.541.651A2.107,2.107,0,0,1,92.5,6.577Z" transform="translate(-64)"/></svg>