<svg xmlns="http://www.w3.org/2000/svg" xmlns:xlink="http://www.w3.org/1999/xlink" width="19.09" height="19.09" viewBox="0 0 19.09 19.09"><defs><style>.a{fill:none;}.b{clip-path:url(#a);}.c{clip-path:url(#b);}.d,.e,.f,.g,.h{fill-rule:evenodd;}.d{fill:url(#c);}.e{fill:url(#d);}.f{fill:#fff;}.g{fill:url(#e);}.h{fill:url(#f);}</style><clipPath id="a"><rect class="a" width="19.09" height="19.09" transform="translate(0 0)"/></clipPath><clipPath id="b"><rect class="a" width="19.086" height="19.086" transform="translate(0 0)"/></clipPath><radialGradient id="c" cx="0.35" cy="0.279" r="0.757" gradientTransform="matrix(1, 0, 0, -0.715, 0, 0.479)" gradientUnits="objectBoundingBox"><stop offset="0.369" stop-color="#fcfef1" stop-opacity="0.992"/><stop offset="1" stop-color="#d0bca3"/></radialGradient><radialGradient id="d" cx="0.452" cy="0.349" r="0.572" gradientTransform="matrix(1, 0, 0, -1, 0, 0.697)" gradientUnits="objectBoundingBox"><stop offset="0.322" stop-color="#c2b299" stop-opacity="0.992"/><stop offset="0.674" stop-color="#e3d9cd"/><stop offset="0.769" stop-color="#ede3d9"/><stop offset="1" stop-color="#d0bca3"/></radialGradient><radialGradient id="e" cx="0.491" cy="0.238" r="1.016" gradientTransform="matrix(1.051, 0.5, 0.381, -0.543, -0.129, 0.113)" gradientUnits="objectBoundingBox"><stop offset="0.377" stop-color="#fff" stop-opacity="0.6"/><stop offset="0.6" stop-color="#d8bca7" stop-opacity="0.561"/><stop offset="0.867" stop-color="#e1cbb3" stop-opacity="0.251"/></radialGradient><radialGradient id="f" cx="0.299" cy="0.365" r="0.851" gradientTransform="matrix(-0.48, -0.707, 0.352, -0.518, 239.23, 141.219)" gradientUnits="objectBoundingBox"><stop offset="0.333" stop-color="#ffffe1" stop-opacity="0.592"/><stop offset="1" stop-color="#f6ecd3" stop-opacity="0.271"/></radialGradient></defs><g class="b"><g class="c" transform="translate(0 0)"><path class="d" d="M17.178,9.673a7.364,7.364,0,0,0-2.235-5.4,7.354,7.354,0,0,0-5.4-2.235,7.364,7.364,0,0,0-5.4,2.235,7.364,7.364,0,0,0-2.235,5.4,7.36,7.36,0,0,0,2.235,5.4,7.364,7.364,0,0,0,5.4,2.235,7.354,7.354,0,0,0,5.4-2.235A7.361,7.361,0,0,0,17.178,9.673Zm-.887-6.751A9.2,9.2,0,0,1,19.086,9.67a9.2,9.2,0,0,1-2.795,6.748,9.2,9.2,0,0,1-6.748,2.795,9.2,9.2,0,0,1-6.748-2.795A9.194,9.194,0,0,1,0,9.67,9.194,9.194,0,0,1,2.795,2.922,9.194,9.194,0,0,1,9.543.127a9.194,9.194,0,0,1,6.748,2.795Z" transform="translate(0 -0.127)"/><path class="e" d="M18.041,10.536a7.36,7.36,0,0,1-2.235,5.4,7.354,7.354,0,0,1-5.4,2.235,7.364,7.364,0,0,1-5.4-2.235,7.36,7.36,0,0,1-2.235-5.4,7.364,7.364,0,0,1,2.235-5.4,7.364,7.364,0,0,1,5.4-2.235,7.354,7.354,0,0,1,5.4,2.235A7.365,7.365,0,0,1,18.041,10.536Z" transform="translate(-0.863 -0.99)"/><path class="f" d="M12.683,3.011V2.886a.849.849,0,0,1,.28-.691.811.811,0,0,1,.618-.172A1.027,1.027,0,0,1,14.2,2.3a.865.865,0,0,1,.28.654.837.837,0,0,1-.207.566.869.869,0,0,1-.7.289.8.8,0,0,1-.817-.476A1.049,1.049,0,0,1,12.683,3.011ZM3.757,11.876q-.024.04-.051.08a1.263,1.263,0,0,1-1.12.551q-1.059,0-1.322-.709a1.306,1.306,0,0,1-.079-.493q.023-.225.023-.228A1.476,1.476,0,0,1,1.64,9.885a1.024,1.024,0,0,1,.792-.223,1.518,1.518,0,0,1,.156.022,1.817,1.817,0,0,1,.945.5,1.286,1.286,0,0,1,.432.928,1.476,1.476,0,0,1-.209.759Z" transform="translate(-0.369 -0.715)"/><path class="g" d="M4.282,11.539a1.474,1.474,0,0,0,.209-.76,1.286,1.286,0,0,0-.432-.928,1.817,1.817,0,0,0-.945-.5,1.518,1.518,0,0,0-.156-.022,5.8,5.8,0,0,1-.071-.6A7.384,7.384,0,0,1,3.98,4.489,7.387,7.387,0,0,1,7.1,1.422a3.384,3.384,0,0,1,3.326-.1,3.387,3.387,0,0,1,1.578,2.926A7.406,7.406,0,0,1,10.915,8.49,7.389,7.389,0,0,1,7.79,11.557a3.378,3.378,0,0,1-3.323.1c-.064-.037-.125-.075-.185-.115Z" transform="translate(-0.893 -0.378)"/><path class="h" d="M8.978,21.148a1.888,1.888,0,0,0,.23.814,2.253,2.253,0,0,0,2.912,1.112l.2.376a2.293,2.293,0,0,1-1.584.4,10.689,10.689,0,0,1-5.374-2.028,2.161,2.161,0,0,1-.939-2.509,1.07,1.07,0,0,1,.936-.84q2.991-.394,3.623,2.678Z" transform="translate(-1.343 -5.82)"/></g></g></svg>