<svg xmlns="http://www.w3.org/2000/svg" width="58.01" height="55.459" viewBox="0 0 58.01 55.459"><defs><style>.a{fill:#fff;}</style></defs><g transform="translate(0)"><g transform="translate(0)"><path class="a" d="M208.745,362.2a1.215,1.215,0,0,0-1.347,1.07l-.108,1.4h-7.741l-.908-11.639a1.265,1.265,0,0,0-2.515.164l.991,12.712a1.224,1.224,0,0,0,1.259,1.072h10.089a1.219,1.219,0,0,0,1.256-1.072l.192-2.477A1.192,1.192,0,0,0,208.745,362.2Z" transform="translate(-174.197 -313.832)"/><path class="a" d="M210.82,32.888a6.067,6.067,0,0,0,6.306-5.777,6.33,6.33,0,0,0-12.611,0A6.067,6.067,0,0,0,210.82,32.888Zm0-9.243a3.64,3.64,0,0,1,3.783,3.466,3.8,3.8,0,0,1-7.567,0A3.64,3.64,0,0,1,210.82,23.645Z" transform="translate(-181.596 -19.023)"/><path class="a" d="M209.55,149.333a6.771,6.771,0,0,0-2.1.34,1.133,1.133,0,0,0-.767,1.474,1.293,1.293,0,0,0,1.609.7,4.117,4.117,0,0,1,1.261-.206h6.227a3.694,3.694,0,0,1,3.756,3.036l1.589,11.653a1.23,1.23,0,0,0,1.251,1.012,1.089,1.089,0,0,0,.151-.009,1.18,1.18,0,0,0,1.095-1.289l-1.589-11.653a6.148,6.148,0,0,0-6.255-5.061Z" transform="translate(-183.444 -133.157)"/><path class="a" d="M270.547,274.487a5.179,5.179,0,0,0-4.152,2.006l-11.267-5.16a3.907,3.907,0,0,0,0-2.93l11.267-5.16a5.19,5.19,0,0,0,4.152,2,4.639,4.639,0,1,0-5.045-4.622c0,.143.033.28.045.421l-11.809,5.41a5.26,5.26,0,0,0-3.37-1.209,4.639,4.639,0,1,0,0,9.243,5.262,5.262,0,0,0,3.372-1.209l11.809,5.41a3.358,3.358,0,0,0-.048.421,5.064,5.064,0,1,0,5.045-4.622Zm0-16.176a2.32,2.32,0,1,1-2.522,2.311A2.427,2.427,0,0,1,270.547,258.312Zm-20.178,13.865a2.32,2.32,0,1,1,2.522-2.311A2.427,2.427,0,0,1,250.369,272.176Zm20.178,9.243a2.32,2.32,0,1,1,2.522-2.311A2.428,2.428,0,0,1,270.547,281.42Z" transform="translate(-217.581 -228.271)"/><path class="a" d="M59.652,11.554a6.067,6.067,0,0,0,6.306-5.777,6.33,6.33,0,0,0-12.611,0A6.067,6.067,0,0,0,59.652,11.554Zm0-9.243a3.64,3.64,0,0,1,3.783,3.466,3.8,3.8,0,0,1-7.567,0A3.64,3.64,0,0,1,59.652,2.311Z" transform="translate(-48.301)"/><path class="a" d="M33.344,147.034l-1.67-13.421A6.454,6.454,0,0,0,25.245,128H18.8a6.456,6.456,0,0,0-6.429,5.613L10.7,147.034a3.714,3.714,0,0,0,1.037,3.057,3.874,3.874,0,0,0,2.59,1.167l1.392,17.266a1.223,1.223,0,0,0,1.259,1.07H27.071a1.215,1.215,0,0,0,1.254-1.07l1.392-17.266a3.858,3.858,0,0,0,2.59-1.167A3.7,3.7,0,0,0,33.344,147.034Zm-2.916,1.518a1.3,1.3,0,0,1-.923.4h-.956a1.222,1.222,0,0,0-1.259,1.07L25.9,167.284H18.152l-1.39-17.262a1.223,1.223,0,0,0-1.259-1.07h-.956a1.3,1.3,0,0,1-.923-.4,1.525,1.525,0,0,1-.414-1.257l1.67-13.421a4.01,4.01,0,0,1,3.925-3.563h6.442a4.014,4.014,0,0,1,3.925,3.563l1.67,13.421A1.525,1.525,0,0,1,30.428,148.552Z" transform="translate(-10.676 -114.135)"/></g></g></svg>