<svg xmlns="http://www.w3.org/2000/svg" xmlns:xlink="http://www.w3.org/1999/xlink" width="89.152" height="88.404" viewBox="0 0 89.152 88.404"><defs><style>.a,.b,.d{fill:#fff;}.a,.c{stroke:#fff;}.a,.b,.c{opacity:0;}.c{fill:none;}.e{filter:url(#h);}.f{filter:url(#f);}.g{filter:url(#c);}.h{filter:url(#a);}</style><filter id="a" x="2.062" y="8.03" width="85.067" height="80.374" filterUnits="userSpaceOnUse"><feOffset input="SourceAlpha"/><feGaussianBlur stdDeviation="5" result="b"/><feFlood flood-color="#fff"/><feComposite operator="in" in2="b"/></filter><filter id="c" x="2.062" y="8.03" width="85.067" height="80.374" filterUnits="userSpaceOnUse"><feOffset input="SourceAlpha"/><feGaussianBlur stdDeviation="5" result="d"/><feFlood flood-color="#fff" result="e"/><feComposite operator="out" in="SourceGraphic" in2="d"/><feComposite operator="in" in="e"/><feComposite operator="in" in2="SourceGraphic"/></filter><filter id="f" x="0" y="0" width="89.152" height="81.416" filterUnits="userSpaceOnUse"><feOffset input="SourceAlpha"/><feGaussianBlur stdDeviation="5" result="g"/><feFlood flood-color="#fff"/><feComposite operator="in" in2="g"/></filter><filter id="h" x="0" y="0" width="89.152" height="81.416" filterUnits="userSpaceOnUse"><feOffset input="SourceAlpha"/><feGaussianBlur stdDeviation="5" result="i"/><feFlood flood-color="#fff" result="j"/><feComposite operator="out" in="SourceGraphic" in2="i"/><feComposite operator="in" in="j"/><feComposite operator="in" in2="SourceGraphic"/></filter></defs><g transform="translate(36.551 36.692)"><g data-type="innerShadowGroup"><g class="h" transform="matrix(1, 0, 0, 1, -36.55, -36.69)"><path class="a" d="M18.067,33.374H13.374V29.017H10.693v4.358H6V26.335a.335.335,0,1,1,.67,0V32.7h3.352V28.346h4.022V32.7H17.4V26.67a.335.335,0,0,1,.67,0Z" transform="translate(32.56 18.53)"/></g><path class="b" d="M18.067,33.374H13.374V29.017H10.693v4.358H6V26.335a.335.335,0,1,1,.67,0V32.7h3.352V28.346h4.022V32.7H17.4V26.67a.335.335,0,0,1,.67,0Z" transform="translate(-3.989 -18.162)"/><g class="g" transform="matrix(1, 0, 0, 1, -36.55, -36.69)"><path class="b" d="M18.067,33.374H13.374V29.017H10.693v4.358H6V26.335a.335.335,0,1,1,.67,0V32.7h3.352V28.346h4.022V32.7H17.4V26.67a.335.335,0,0,1,.67,0Z" transform="translate(32.56 18.53)"/></g><path class="c" d="M18.067,33.374H13.374V29.017H10.693v4.358H6V26.335a.335.335,0,1,1,.67,0V32.7h3.352V28.346h4.022V32.7H17.4V26.67a.335.335,0,0,1,.67,0Z" transform="translate(-3.989 -18.162)"/></g><g data-type="innerShadowGroup"><g class="f" transform="matrix(1, 0, 0, 1, -36.55, -36.69)"><path class="a" d="M15.754,10.789a.334.334,0,0,1-.232-.093L8.044,3.544.566,10.7A.335.335,0,0,1,.1,10.212l7.941-7.6,7.941,7.6a.335.335,0,0,1-.232.578ZM13.072,6.767a.335.335,0,0,1-.335-.335V4.421H10.726a.335.335,0,1,1,0-.67h2.682V6.432A.335.335,0,0,1,13.072,6.767Z" transform="translate(36.55 34.08)"/></g><path class="b" d="M15.754,10.789a.334.334,0,0,1-.232-.093L8.044,3.544.566,10.7A.335.335,0,0,1,.1,10.212l7.941-7.6,7.941,7.6a.335.335,0,0,1-.232.578ZM13.072,6.767a.335.335,0,0,1-.335-.335V4.421H10.726a.335.335,0,1,1,0-.67h2.682V6.432A.335.335,0,0,1,13.072,6.767Z" transform="translate(0.001 -2.616)"/><g class="e" transform="matrix(1, 0, 0, 1, -36.55, -36.69)"><path class="b" d="M15.754,10.789a.334.334,0,0,1-.232-.093L8.044,3.544.566,10.7A.335.335,0,0,1,.1,10.212l7.941-7.6,7.941,7.6a.335.335,0,0,1-.232.578ZM13.072,6.767a.335.335,0,0,1-.335-.335V4.421H10.726a.335.335,0,1,1,0-.67h2.682V6.432A.335.335,0,0,1,13.072,6.767Z" transform="translate(36.55 34.08)"/></g><path class="c" d="M15.754,10.789a.334.334,0,0,1-.232-.093L8.044,3.544.566,10.7A.335.335,0,0,1,.1,10.212l7.941-7.6,7.941,7.6a.335.335,0,0,1-.232.578ZM13.072,6.767a.335.335,0,0,1-.335-.335V4.421H10.726a.335.335,0,1,1,0-.67h2.682V6.432A.335.335,0,0,1,13.072,6.767Z" transform="translate(0.001 -2.616)"/></g><path class="d" d="M18.067,33.374H13.374V29.017H10.693v4.358H6V26.335a.335.335,0,1,1,.67,0V32.7h3.352V28.346h4.022V32.7H17.4V26.67a.335.335,0,0,1,.67,0Z" transform="translate(-3.989 -18.162)"/><path class="d" d="M15.754,10.789a.334.334,0,0,1-.232-.093L8.044,3.544.566,10.7A.335.335,0,0,1,.1,10.212l7.941-7.6,7.941,7.6a.335.335,0,0,1-.232.578ZM13.072,6.767a.335.335,0,0,1-.335-.335V4.421H10.726a.335.335,0,1,1,0-.67h2.682V6.432A.335.335,0,0,1,13.072,6.767Z" transform="translate(0.001 -2.616)"/></g></svg>