<svg xmlns="http://www.w3.org/2000/svg" xmlns:xlink="http://www.w3.org/1999/xlink" width="80.421" height="79.49" viewBox="0 0 80.421 79.49"><defs><style>.a,.b{fill:#ff3567;}.a,.d{stroke:#ff3567;}.c{fill:#fff;}.d{fill:none;}.e{filter:url(#h);}.f{filter:url(#f);}.g{filter:url(#c);}.h{filter:url(#a);}</style><filter id="a" x="2.474" y="9.62" width="75.515" height="69.87" filterUnits="userSpaceOnUse"><feOffset input="SourceAlpha"/><feGaussianBlur stdDeviation="5" result="b"/><feFlood flood-color="#ff3567"/><feComposite operator="in" in2="b"/></filter><filter id="c" x="2.474" y="9.62" width="75.515" height="69.87" filterUnits="userSpaceOnUse"><feOffset input="SourceAlpha"/><feGaussianBlur stdDeviation="5" result="d"/><feFlood flood-color="#ff3567" result="e"/><feComposite operator="out" in="SourceGraphic" in2="d"/><feComposite operator="in" in="e"/><feComposite operator="in" in2="SourceGraphic"/></filter><filter id="f" x="0" y="0" width="80.421" height="71.078" filterUnits="userSpaceOnUse"><feOffset input="SourceAlpha"/><feGaussianBlur stdDeviation="5" result="g"/><feFlood flood-color="#ff3567"/><feComposite operator="in" in2="g"/></filter><filter id="h" x="0" y="0" width="80.421" height="71.078" filterUnits="userSpaceOnUse"><feOffset input="SourceAlpha"/><feGaussianBlur stdDeviation="5" result="i"/><feFlood flood-color="#ff3567" result="j"/><feComposite operator="out" in="SourceGraphic" in2="i"/><feComposite operator="in" in="j"/><feComposite operator="in" in2="SourceGraphic"/></filter></defs><g transform="translate(30.555 30.692)"><g data-type="innerShadowGroup"><g class="h" transform="matrix(1, 0, 0, 1, -30.55, -30.69)"><path class="a" d="M20.515,34.87H14.87V29.629H11.645V34.87H6V26.4a.4.4,0,0,1,.806,0v7.661h4.032V28.822h4.838v5.242h4.032V26.806a.4.4,0,1,1,.806,0Z" transform="translate(26.97 14.12)"/></g><path class="b" d="M20.515,34.87H14.87V29.629H11.645V34.87H6V26.4a.4.4,0,0,1,.806,0v7.661h4.032V28.822h4.838v5.242h4.032V26.806a.4.4,0,1,1,.806,0Z" transform="translate(-3.581 -16.572)"/><g class="g" transform="matrix(1, 0, 0, 1, -30.55, -30.69)"><path class="c" d="M20.515,34.87H14.87V29.629H11.645V34.87H6V26.4a.4.4,0,0,1,.806,0v7.661h4.032V28.822h4.838v5.242h4.032V26.806a.4.4,0,1,1,.806,0Z" transform="translate(26.97 14.12)"/></g><path class="d" d="M20.515,34.87H14.87V29.629H11.645V34.87H6V26.4a.4.4,0,0,1,.806,0v7.661h4.032V28.822h4.838v5.242h4.032V26.806a.4.4,0,1,1,.806,0Z" transform="translate(-3.581 -16.572)"/></g><g data-type="innerShadowGroup"><g class="f" transform="matrix(1, 0, 0, 1, -30.55, -30.69)"><path class="a" d="M18.95,12.447a.4.4,0,0,1-.279-.112l-8.995-8.6-8.995,8.6a.4.4,0,0,1-.558-.583L9.676,2.616l9.552,9.137a.4.4,0,0,1-.279.695ZM15.724,7.609a.4.4,0,0,1-.4-.4V4.787H12.9a.4.4,0,1,1,0-.806h3.226V7.206A.4.4,0,0,1,15.724,7.609Z" transform="translate(30.56 28.08)"/></g><path class="b" d="M18.95,12.447a.4.4,0,0,1-.279-.112l-8.995-8.6-8.995,8.6a.4.4,0,0,1-.558-.583L9.676,2.616l9.552,9.137a.4.4,0,0,1-.279.695ZM15.724,7.609a.4.4,0,0,1-.4-.4V4.787H12.9a.4.4,0,1,1,0-.806h3.226V7.206A.4.4,0,0,1,15.724,7.609Z" transform="translate(0 -2.616)"/><g class="e" transform="matrix(1, 0, 0, 1, -30.55, -30.69)"><path class="c" d="M18.95,12.447a.4.4,0,0,1-.279-.112l-8.995-8.6-8.995,8.6a.4.4,0,0,1-.558-.583L9.676,2.616l9.552,9.137a.4.4,0,0,1-.279.695ZM15.724,7.609a.4.4,0,0,1-.4-.4V4.787H12.9a.4.4,0,1,1,0-.806h3.226V7.206A.4.4,0,0,1,15.724,7.609Z" transform="translate(30.56 28.08)"/></g><path class="d" d="M18.95,12.447a.4.4,0,0,1-.279-.112l-8.995-8.6-8.995,8.6a.4.4,0,0,1-.558-.583L9.676,2.616l9.552,9.137a.4.4,0,0,1-.279.695ZM15.724,7.609a.4.4,0,0,1-.4-.4V4.787H12.9a.4.4,0,1,1,0-.806h3.226V7.206A.4.4,0,0,1,15.724,7.609Z" transform="translate(0 -2.616)"/></g><path class="b" d="M20.515,34.87H14.87V29.629H11.645V34.87H6V26.4a.4.4,0,0,1,.806,0v7.661h4.032V28.822h4.838v5.242h4.032V26.806a.4.4,0,1,1,.806,0Z" transform="translate(-3.581 -16.572)"/><path class="b" d="M18.95,12.447a.4.4,0,0,1-.279-.112l-8.995-8.6-8.995,8.6a.4.4,0,0,1-.558-.583L9.676,2.616l9.552,9.137a.4.4,0,0,1-.279.695ZM15.724,7.609a.4.4,0,0,1-.4-.4V4.787H12.9a.4.4,0,1,1,0-.806h3.226V7.206A.4.4,0,0,1,15.724,7.609Z" transform="translate(0 -2.616)"/></g></svg>