<svg xmlns="http://www.w3.org/2000/svg" xmlns:xlink="http://www.w3.org/1999/xlink" width="91" height="91" viewBox="0 0 91 91"><defs><style>.a,.b{fill:#fff;}.a,.c{stroke:#fff;}.a,.b,.c{opacity:0;}.c{fill:none;}.d{filter:url(#c);}.e{filter:url(#a);}</style><filter id="a" x="0" y="0" width="91" height="91" filterUnits="userSpaceOnUse"><feOffset input="SourceAlpha"/><feGaussianBlur stdDeviation="5" result="b"/><feFlood flood-color="#fff" flood-opacity="0.161"/><feComposite operator="in" in2="b"/></filter><filter id="c" x="0" y="0" width="91" height="91" filterUnits="userSpaceOnUse"><feOffset input="SourceAlpha"/><feGaussianBlur stdDeviation="5" result="d"/><feFlood flood-color="#fff" flood-opacity="0.161" result="e"/><feComposite operator="out" in="SourceGraphic" in2="d"/><feComposite operator="in" in="e"/><feComposite operator="in" in2="SourceGraphic"/></filter></defs><g data-type="innerShadowGroup"><g class="e" transform="matrix(1, 0, 0, 1, 0, 0)"><path class="a" d="M19.926,29.8h1.149a.22.22,0,0,0,.22-.219v-1.4a.22.22,0,0,0-.22-.219H19.926a.219.219,0,0,0-.219.219v1.4A.219.219,0,0,0,19.926,29.8Zm.219-1.4h.71v.961h-.71Zm3.514-3.443H22.511a.219.219,0,0,0-.221.219v4.408a.219.219,0,0,0,.219.219h1.151a.22.22,0,0,0,.22-.219V25.175a.22.22,0,0,0-.22-.219Zm-.219,4.407h-.709V25.4h.709Zm5.39-6.126H27.68a.219.219,0,0,0-.219.219v6.13a.219.219,0,0,0,.219.219h1.15a.219.219,0,0,0,.219-.219V23.453A.219.219,0,0,0,28.829,23.237Zm-.218,6.126H27.9V23.674h.709Zm1.655-4.407a.219.219,0,0,0-.219.219v4.408a.219.219,0,0,0,.219.219h1.147a.219.219,0,0,0,.219-.219V25.175a.219.219,0,0,0-.219-.219Zm.929,4.407h-.709V25.4H31.2Zm-4.952-2.684H25.1a.22.22,0,0,0-.219.22v2.684a.219.219,0,0,0,.219.219h1.149a.219.219,0,0,0,.22-.219V26.9A.22.22,0,0,0,26.244,26.678Zm-.219,2.684h-.709V27.118h.709ZM20.5,26.687a.649.649,0,0,0,.543-1.007L22.9,23.209a.632.632,0,0,0,.19.032.645.645,0,0,0,.386-.129l1.57,1.045a.641.641,0,0,0-.021.157.651.651,0,0,0,1.3,0,.644.644,0,0,0-.105-.358l1.852-2.469a.632.632,0,0,0,.19.032.646.646,0,0,0,.386-.13l1.57,1.046a.639.639,0,0,0-.021.156.657.657,0,1,0,.266-.52l-1.573-1.046a.7.7,0,0,0,.021-.156.651.651,0,0,0-1.3,0,.643.643,0,0,0,.105.357l-1.85,2.469a.662.662,0,0,0-.19-.032.643.643,0,0,0-.385.13l-1.571-1.046a.632.632,0,0,0,.021-.156.65.65,0,0,0-1.3,0,.64.64,0,0,0,.105.357l-1.85,2.471a.632.632,0,0,0-.19-.032.65.65,0,1,0,0,1.3Zm10.553-4.1a.211.211,0,1,1-.211-.211A.211.211,0,0,1,31.051,22.591Zm-2.8-1.934a.211.211,0,1,1-.211.211A.211.211,0,0,1,28.254,20.657Zm-2.373,3.658a.211.211,0,1,1-.211-.211A.211.211,0,0,1,25.881,24.314Zm-2.8-1.934a.211.211,0,1,1-.211.211A.211.211,0,0,1,23.085,22.38ZM20.5,25.825a.211.211,0,1,1-.211.211A.211.211,0,0,1,20.5,25.825ZM34.009,16.67H17.329a.659.659,0,0,0-.659.658v1.1a.659.659,0,0,0,.659.658h.219V30.717a.658.658,0,0,0,.659.658H25.45v1.343a.988.988,0,1,0,.439,0V31.375h7.244a.66.66,0,0,0,.659-.658V19.084h.219a.659.659,0,0,0,.659-.658v-1.1a.659.659,0,0,0-.659-.658Zm-7.8,17.01a.228.228,0,1,1,.006,0Zm7.141-2.964a.219.219,0,0,1-.219.219H18.206a.219.219,0,0,1-.219-.219V19.084H33.353Zm.878-12.291a.22.22,0,0,1-.219.22H17.329a.221.221,0,0,1-.22-.22v-1.1a.221.221,0,0,1,.22-.22H34.011a.22.22,0,0,1,.219.22Z" transform="translate(19.83 19.83)"/></g><path class="b" d="M19.926,29.8h1.149a.22.22,0,0,0,.22-.219v-1.4a.22.22,0,0,0-.22-.219H19.926a.219.219,0,0,0-.219.219v1.4A.219.219,0,0,0,19.926,29.8Zm.219-1.4h.71v.961h-.71Zm3.514-3.443H22.511a.219.219,0,0,0-.221.219v4.408a.219.219,0,0,0,.219.219h1.151a.22.22,0,0,0,.22-.219V25.175a.22.22,0,0,0-.22-.219Zm-.219,4.407h-.709V25.4h.709Zm5.39-6.126H27.68a.219.219,0,0,0-.219.219v6.13a.219.219,0,0,0,.219.219h1.15a.219.219,0,0,0,.219-.219V23.453A.219.219,0,0,0,28.829,23.237Zm-.218,6.126H27.9V23.674h.709Zm1.655-4.407a.219.219,0,0,0-.219.219v4.408a.219.219,0,0,0,.219.219h1.147a.219.219,0,0,0,.219-.219V25.175a.219.219,0,0,0-.219-.219Zm.929,4.407h-.709V25.4H31.2Zm-4.952-2.684H25.1a.22.22,0,0,0-.219.22v2.684a.219.219,0,0,0,.219.219h1.149a.219.219,0,0,0,.22-.219V26.9A.22.22,0,0,0,26.244,26.678Zm-.219,2.684h-.709V27.118h.709ZM20.5,26.687a.649.649,0,0,0,.543-1.007L22.9,23.209a.632.632,0,0,0,.19.032.645.645,0,0,0,.386-.129l1.57,1.045a.641.641,0,0,0-.021.157.651.651,0,0,0,1.3,0,.644.644,0,0,0-.105-.358l1.852-2.469a.632.632,0,0,0,.19.032.646.646,0,0,0,.386-.13l1.57,1.046a.639.639,0,0,0-.021.156.657.657,0,1,0,.266-.52l-1.573-1.046a.7.7,0,0,0,.021-.156.651.651,0,0,0-1.3,0,.643.643,0,0,0,.105.357l-1.85,2.469a.662.662,0,0,0-.19-.032.643.643,0,0,0-.385.13l-1.571-1.046a.632.632,0,0,0,.021-.156.65.65,0,0,0-1.3,0,.64.64,0,0,0,.105.357l-1.85,2.471a.632.632,0,0,0-.19-.032.65.65,0,1,0,0,1.3Zm10.553-4.1a.211.211,0,1,1-.211-.211A.211.211,0,0,1,31.051,22.591Zm-2.8-1.934a.211.211,0,1,1-.211.211A.211.211,0,0,1,28.254,20.657Zm-2.373,3.658a.211.211,0,1,1-.211-.211A.211.211,0,0,1,25.881,24.314Zm-2.8-1.934a.211.211,0,1,1-.211.211A.211.211,0,0,1,23.085,22.38ZM20.5,25.825a.211.211,0,1,1-.211.211A.211.211,0,0,1,20.5,25.825ZM34.009,16.67H17.329a.659.659,0,0,0-.659.658v1.1a.659.659,0,0,0,.659.658h.219V30.717a.658.658,0,0,0,.659.658H25.45v1.343a.988.988,0,1,0,.439,0V31.375h7.244a.66.66,0,0,0,.659-.658V19.084h.219a.659.659,0,0,0,.659-.658v-1.1a.659.659,0,0,0-.659-.658Zm-7.8,17.01a.228.228,0,1,1,.006,0Zm7.141-2.964a.219.219,0,0,1-.219.219H18.206a.219.219,0,0,1-.219-.219V19.084H33.353Zm.878-12.291a.22.22,0,0,1-.219.22H17.329a.221.221,0,0,1-.22-.22v-1.1a.221.221,0,0,1,.22-.22H34.011a.22.22,0,0,1,.219.22Z" transform="translate(19.83 19.83)"/><g class="d" transform="matrix(1, 0, 0, 1, 0, 0)"><path class="b" d="M19.926,29.8h1.149a.22.22,0,0,0,.22-.219v-1.4a.22.22,0,0,0-.22-.219H19.926a.219.219,0,0,0-.219.219v1.4A.219.219,0,0,0,19.926,29.8Zm.219-1.4h.71v.961h-.71Zm3.514-3.443H22.511a.219.219,0,0,0-.221.219v4.408a.219.219,0,0,0,.219.219h1.151a.22.22,0,0,0,.22-.219V25.175a.22.22,0,0,0-.22-.219Zm-.219,4.407h-.709V25.4h.709Zm5.39-6.126H27.68a.219.219,0,0,0-.219.219v6.13a.219.219,0,0,0,.219.219h1.15a.219.219,0,0,0,.219-.219V23.453A.219.219,0,0,0,28.829,23.237Zm-.218,6.126H27.9V23.674h.709Zm1.655-4.407a.219.219,0,0,0-.219.219v4.408a.219.219,0,0,0,.219.219h1.147a.219.219,0,0,0,.219-.219V25.175a.219.219,0,0,0-.219-.219Zm.929,4.407h-.709V25.4H31.2Zm-4.952-2.684H25.1a.22.22,0,0,0-.219.22v2.684a.219.219,0,0,0,.219.219h1.149a.219.219,0,0,0,.22-.219V26.9A.22.22,0,0,0,26.244,26.678Zm-.219,2.684h-.709V27.118h.709ZM20.5,26.687a.649.649,0,0,0,.543-1.007L22.9,23.209a.632.632,0,0,0,.19.032.645.645,0,0,0,.386-.129l1.57,1.045a.641.641,0,0,0-.021.157.651.651,0,0,0,1.3,0,.644.644,0,0,0-.105-.358l1.852-2.469a.632.632,0,0,0,.19.032.646.646,0,0,0,.386-.13l1.57,1.046a.639.639,0,0,0-.021.156.657.657,0,1,0,.266-.52l-1.573-1.046a.7.7,0,0,0,.021-.156.651.651,0,0,0-1.3,0,.643.643,0,0,0,.105.357l-1.85,2.469a.662.662,0,0,0-.19-.032.643.643,0,0,0-.385.13l-1.571-1.046a.632.632,0,0,0,.021-.156.65.65,0,0,0-1.3,0,.64.64,0,0,0,.105.357l-1.85,2.471a.632.632,0,0,0-.19-.032.65.65,0,1,0,0,1.3Zm10.553-4.1a.211.211,0,1,1-.211-.211A.211.211,0,0,1,31.051,22.591Zm-2.8-1.934a.211.211,0,1,1-.211.211A.211.211,0,0,1,28.254,20.657Zm-2.373,3.658a.211.211,0,1,1-.211-.211A.211.211,0,0,1,25.881,24.314Zm-2.8-1.934a.211.211,0,1,1-.211.211A.211.211,0,0,1,23.085,22.38ZM20.5,25.825a.211.211,0,1,1-.211.211A.211.211,0,0,1,20.5,25.825ZM34.009,16.67H17.329a.659.659,0,0,0-.659.658v1.1a.659.659,0,0,0,.659.658h.219V30.717a.658.658,0,0,0,.659.658H25.45v1.343a.988.988,0,1,0,.439,0V31.375h7.244a.66.66,0,0,0,.659-.658V19.084h.219a.659.659,0,0,0,.659-.658v-1.1a.659.659,0,0,0-.659-.658Zm-7.8,17.01a.228.228,0,1,1,.006,0Zm7.141-2.964a.219.219,0,0,1-.219.219H18.206a.219.219,0,0,1-.219-.219V19.084H33.353Zm.878-12.291a.22.22,0,0,1-.219.22H17.329a.221.221,0,0,1-.22-.22v-1.1a.221.221,0,0,1,.22-.22H34.011a.22.22,0,0,1,.219.22Z" transform="translate(19.83 19.83)"/></g><path class="c" d="M19.926,29.8h1.149a.22.22,0,0,0,.22-.219v-1.4a.22.22,0,0,0-.22-.219H19.926a.219.219,0,0,0-.219.219v1.4A.219.219,0,0,0,19.926,29.8Zm.219-1.4h.71v.961h-.71Zm3.514-3.443H22.511a.219.219,0,0,0-.221.219v4.408a.219.219,0,0,0,.219.219h1.151a.22.22,0,0,0,.22-.219V25.175a.22.22,0,0,0-.22-.219Zm-.219,4.407h-.709V25.4h.709Zm5.39-6.126H27.68a.219.219,0,0,0-.219.219v6.13a.219.219,0,0,0,.219.219h1.15a.219.219,0,0,0,.219-.219V23.453A.219.219,0,0,0,28.829,23.237Zm-.218,6.126H27.9V23.674h.709Zm1.655-4.407a.219.219,0,0,0-.219.219v4.408a.219.219,0,0,0,.219.219h1.147a.219.219,0,0,0,.219-.219V25.175a.219.219,0,0,0-.219-.219Zm.929,4.407h-.709V25.4H31.2Zm-4.952-2.684H25.1a.22.22,0,0,0-.219.22v2.684a.219.219,0,0,0,.219.219h1.149a.219.219,0,0,0,.22-.219V26.9A.22.22,0,0,0,26.244,26.678Zm-.219,2.684h-.709V27.118h.709ZM20.5,26.687a.649.649,0,0,0,.543-1.007L22.9,23.209a.632.632,0,0,0,.19.032.645.645,0,0,0,.386-.129l1.57,1.045a.641.641,0,0,0-.021.157.651.651,0,0,0,1.3,0,.644.644,0,0,0-.105-.358l1.852-2.469a.632.632,0,0,0,.19.032.646.646,0,0,0,.386-.13l1.57,1.046a.639.639,0,0,0-.021.156.657.657,0,1,0,.266-.52l-1.573-1.046a.7.7,0,0,0,.021-.156.651.651,0,0,0-1.3,0,.643.643,0,0,0,.105.357l-1.85,2.469a.662.662,0,0,0-.19-.032.643.643,0,0,0-.385.13l-1.571-1.046a.632.632,0,0,0,.021-.156.65.65,0,0,0-1.3,0,.64.64,0,0,0,.105.357l-1.85,2.471a.632.632,0,0,0-.19-.032.65.65,0,1,0,0,1.3Zm10.553-4.1a.211.211,0,1,1-.211-.211A.211.211,0,0,1,31.051,22.591Zm-2.8-1.934a.211.211,0,1,1-.211.211A.211.211,0,0,1,28.254,20.657Zm-2.373,3.658a.211.211,0,1,1-.211-.211A.211.211,0,0,1,25.881,24.314Zm-2.8-1.934a.211.211,0,1,1-.211.211A.211.211,0,0,1,23.085,22.38ZM20.5,25.825a.211.211,0,1,1-.211.211A.211.211,0,0,1,20.5,25.825ZM34.009,16.67H17.329a.659.659,0,0,0-.659.658v1.1a.659.659,0,0,0,.659.658h.219V30.717a.658.658,0,0,0,.659.658H25.45v1.343a.988.988,0,1,0,.439,0V31.375h7.244a.66.66,0,0,0,.659-.658V19.084h.219a.659.659,0,0,0,.659-.658v-1.1a.659.659,0,0,0-.659-.658Zm-7.8,17.01a.228.228,0,1,1,.006,0Zm7.141-2.964a.219.219,0,0,1-.219.219H18.206a.219.219,0,0,1-.219-.219V19.084H33.353Zm.878-12.291a.22.22,0,0,1-.219.22H17.329a.221.221,0,0,1-.22-.22v-1.1a.221.221,0,0,1,.22-.22H34.011a.22.22,0,0,1,.219.22Z" transform="translate(19.83 19.83)"/></g></svg>