<svg xmlns="http://www.w3.org/2000/svg" xmlns:xlink="http://www.w3.org/1999/xlink" width="100.5" height="100.5" viewBox="0 0 100.5 100.5"><defs><style>.a{opacity:0.85;}.b{fill:#ff3567;}.c{fill:#fff;}.d{filter:url(#t);}.e{filter:url(#r);}.f{filter:url(#p);}.g{filter:url(#m);}.h{filter:url(#k);}.i{filter:url(#h);}.j{filter:url(#f);}.k{filter:url(#c);}.l{filter:url(#a);}</style><filter id="a" x="10.996" y="9.972" width="78.109" height="84.186" filterUnits="userSpaceOnUse"><feOffset input="SourceAlpha"/><feGaussianBlur stdDeviation="5" result="b"/><feFlood flood-color="#ff3567"/><feComposite operator="in" in2="b"/><feComposite in="SourceGraphic"/></filter><filter id="c" x="10.996" y="9.972" width="78.109" height="84.186" filterUnits="userSpaceOnUse"><feOffset input="SourceAlpha"/><feGaussianBlur stdDeviation="5" result="d"/><feFlood flood-color="#ff3567" result="e"/><feComposite operator="out" in="SourceGraphic" in2="d"/><feComposite operator="in" in="e"/><feComposite operator="in" in2="SourceGraphic"/></filter><filter id="f" x="14.495" y="4.107" width="75.744" height="75.744" filterUnits="userSpaceOnUse"><feOffset input="SourceAlpha"/><feGaussianBlur stdDeviation="5" result="g"/><feFlood flood-color="#ff3567"/><feComposite operator="in" in2="g"/><feComposite in="SourceGraphic"/></filter><filter id="h" x="14.495" y="4.107" width="75.744" height="75.744" filterUnits="userSpaceOnUse"><feOffset input="SourceAlpha"/><feGaussianBlur stdDeviation="5" result="i"/><feFlood flood-color="#ff3567" result="j"/><feComposite operator="out" in="SourceGraphic" in2="i"/><feComposite operator="in" in="j"/><feComposite operator="in" in2="SourceGraphic"/></filter><filter id="k" x="0" y="0" width="100.5" height="100.5" filterUnits="userSpaceOnUse"><feOffset input="SourceAlpha"/><feGaussianBlur stdDeviation="5" result="l"/><feFlood flood-color="#ff3567"/><feComposite operator="in" in2="l"/><feComposite in="SourceGraphic"/></filter><filter id="m" x="0" y="0" width="100.5" height="100.5" filterUnits="userSpaceOnUse"><feOffset input="SourceAlpha"/><feGaussianBlur stdDeviation="5" result="n"/><feFlood flood-color="#ff3567" result="o"/><feComposite operator="out" in="SourceGraphic" in2="n"/><feComposite operator="in" in="o"/><feComposite operator="in" in2="SourceGraphic"/></filter><filter id="p" x="33.292" y="30.972" width="34.211" height="38.051" filterUnits="userSpaceOnUse"><feOffset input="SourceAlpha"/><feGaussianBlur stdDeviation="5" result="q"/><feFlood flood-color="#ff3567"/><feComposite operator="in" in2="q"/><feComposite in="SourceGraphic"/></filter><filter id="r" x="35.495" y="26.403" width="33.304" height="33.435" filterUnits="userSpaceOnUse"><feOffset input="SourceAlpha"/><feGaussianBlur stdDeviation="5" result="s"/><feFlood flood-color="#ff3567"/><feComposite operator="in" in2="s"/><feComposite in="SourceGraphic"/></filter><filter id="t" x="24.888" y="22.296" width="51.131" height="51.131" filterUnits="userSpaceOnUse"><feOffset input="SourceAlpha"/><feGaussianBlur stdDeviation="5" result="u"/><feFlood flood-color="#ff3567"/><feComposite operator="in" in2="u"/><feComposite in="SourceGraphic"/></filter></defs><g class="a" transform="translate(36 36)"><g data-type="innerShadowGroup"><g class="l" transform="matrix(1, 0, 0, 1, -36, -36)"><path class="b" d="M381.428,302.75l.432.249-.195.333a8.46,8.46,0,0,1-1.83,2.217,3.331,3.331,0,0,1-1.731.8,1.935,1.935,0,0,1-1.65-.444,1.5,1.5,0,0,1-.462-1.431c.117-.621.285-1.233.459-1.839.534-1.872,1.083-3.741,1.617-5.61a5.742,5.742,0,0,0,.138-.786.762.762,0,0,0-.741-.84h-.6c.048-.162.087-.3.141-.459,0-.03.078-.051.123-.057,1.368-.234,2.736-.456,4.128-.669a5.568,5.568,0,0,1,.81,0c-.111.384-.219.765-.33,1.143q-1.131,3.921-2.259,7.839c-.087.3-.135.6-.207.918a.429.429,0,0,0,.2.489.375.375,0,0,0,.483-.069,8.413,8.413,0,0,0,.756-.777c.237-.285.438-.6.654-.9a1,1,0,0,1,.069-.108Z" transform="translate(-328.96 -248.23)"/></g><g class="k" transform="matrix(1, 0, 0, 1, -36, -36)"><path class="c" d="M381.428,302.75l.432.249-.195.333a8.46,8.46,0,0,1-1.83,2.217,3.331,3.331,0,0,1-1.731.8,1.935,1.935,0,0,1-1.65-.444,1.5,1.5,0,0,1-.462-1.431c.117-.621.285-1.233.459-1.839.534-1.872,1.083-3.741,1.617-5.61a5.742,5.742,0,0,0,.138-.786.762.762,0,0,0-.741-.84h-.6c.048-.162.087-.3.141-.459,0-.03.078-.051.123-.057,1.368-.234,2.736-.456,4.128-.669a5.568,5.568,0,0,1,.81,0c-.111.384-.219.765-.33,1.143q-1.131,3.921-2.259,7.839c-.087.3-.135.6-.207.918a.429.429,0,0,0,.2.489.375.375,0,0,0,.483-.069,8.413,8.413,0,0,0,.756-.777c.237-.285.438-.6.654-.9a1,1,0,0,1,.069-.108Z" transform="translate(-328.96 -248.23)"/></g></g><g data-type="innerShadowGroup"><g class="j" transform="matrix(1, 0, 0, 1, -36, -36)"><path class="b" d="M462.6,150.815a1.845,1.845,0,0,1,1.83-1.863,1.872,1.872,0,1,1-1.83,1.875Z" transform="translate(-412.1 -108.84)"/></g><g class="i" transform="matrix(1, 0, 0, 1, -36, -36)"><path class="c" d="M462.6,150.815a1.845,1.845,0,0,1,1.83-1.863,1.872,1.872,0,1,1-1.83,1.875Z" transform="translate(-412.1 -108.84)"/></g></g><g data-type="innerShadowGroup"><g class="h" transform="matrix(1, 0, 0, 1, -36, -36)"><path class="b" d="M125.97,18.62A14.268,14.268,0,1,0,136.041,22.8,14.249,14.249,0,0,0,125.97,18.62Zm0,25.968a11.729,11.729,0,1,1,8.282-3.435,11.718,11.718,0,0,1-8.282,3.435Z" transform="translate(-75.72 17.38)"/></g><g class="g" transform="matrix(1, 0, 0, 1, -36, -36)"><path class="c" d="M125.97,18.62A14.268,14.268,0,1,0,136.041,22.8,14.249,14.249,0,0,0,125.97,18.62Zm0,25.968a11.729,11.729,0,1,1,8.282-3.435,11.718,11.718,0,0,1-8.282,3.435Z" transform="translate(-75.72 17.38)"/></g></g><g transform="translate(3.888 1.296)"><g class="f" transform="matrix(1, 0, 0, 1, -39.89, -37.3)"><path class="b" d="M379.728,299.849l.3.165-.134.22a5.646,5.646,0,0,1-1.261,1.465,2.342,2.342,0,0,1-1.193.529,1.375,1.375,0,0,1-1.137-.293.988.988,0,0,1-.292-.432.95.95,0,0,1-.027-.514c.081-.41.2-.815.316-1.215.368-1.237.746-2.472,1.115-3.706a3.652,3.652,0,0,0,.1-.519.49.49,0,0,0-.129-.385.534.534,0,0,0-.382-.17h-.414c.033-.107.06-.2.1-.3,0-.02.054-.034.085-.038.943-.155,1.886-.3,2.845-.442a3.971,3.971,0,0,1,.558,0c-.076.254-.151.505-.227.755q-.78,2.59-1.557,5.179c-.06.2-.093.4-.143.607a.278.278,0,0,0,.134.323.266.266,0,0,0,.333-.045,5.674,5.674,0,0,0,.521-.513c.163-.188.3-.4.451-.595A.655.655,0,0,1,379.728,299.849Z" transform="translate(-327.67 -248.23)"/></g><g class="e" transform="matrix(1, 0, 0, 1, -39.89, -37.3)"><path class="b" d="M462.6,150.661a1.728,1.728,0,0,1,.466-1.2,1.6,1.6,0,0,1,1.148-.506,1.619,1.619,0,0,1,1.183.48,1.766,1.766,0,0,1,.036,2.437,1.608,1.608,0,0,1-2.344.021,1.75,1.75,0,0,1-.49-1.217Z" transform="translate(-412.1 -107.55)"/></g><g class="d" transform="matrix(1, 0, 0, 1, -39.89, -37.3)"><path class="b" d="M122.285,18.62a10.579,10.579,0,1,0,7.467,3.1,10.565,10.565,0,0,0-7.467-3.1Zm0,19.253a8.7,8.7,0,1,1,6.141-2.547,8.688,8.688,0,0,1-6.141,2.547Z" transform="translate(-71.83 18.68)"/></g></g></g></svg>