<svg xmlns="http://www.w3.org/2000/svg" xmlns:xlink="http://www.w3.org/1999/xlink" width="95.322" height="95.322" viewBox="0 0 95.322 95.322"><defs><style>.a{opacity:0.85;}.b,.c,.e{fill:#fff;}.b,.d{stroke:#fff;stroke-width:1.33px;}.b,.c,.d{opacity:0;}.d{fill:none;}.f{filter:url(#m);}.g{filter:url(#k);}.h{filter:url(#h);}.i{filter:url(#f);}.j{filter:url(#c);}.k{filter:url(#a);}</style><filter id="a" x="8.484" y="7.695" width="78.246" height="82.739" filterUnits="userSpaceOnUse"><feOffset input="SourceAlpha"/><feGaussianBlur stdDeviation="5" result="b"/><feFlood flood-opacity="0.161"/><feComposite operator="in" in2="b"/></filter><filter id="c" x="8.484" y="7.695" width="78.246" height="82.739" filterUnits="userSpaceOnUse"><feOffset input="SourceAlpha"/><feGaussianBlur stdDeviation="5" result="d"/><feFlood flood-opacity="0.161" result="e"/><feComposite operator="out" in="SourceGraphic" in2="d"/><feComposite operator="in" in="e"/><feComposite operator="in" in2="SourceGraphic"/></filter><filter id="f" x="11.185" y="3.169" width="76.219" height="76.219" filterUnits="userSpaceOnUse"><feOffset input="SourceAlpha"/><feGaussianBlur stdDeviation="5" result="g"/><feFlood flood-opacity="0.161"/><feComposite operator="in" in2="g"/></filter><filter id="h" x="11.185" y="3.169" width="76.219" height="76.219" filterUnits="userSpaceOnUse"><feOffset input="SourceAlpha"/><feGaussianBlur stdDeviation="5" result="i"/><feFlood flood-opacity="0.161" result="j"/><feComposite operator="out" in="SourceGraphic" in2="i"/><feComposite operator="in" in="j"/><feComposite operator="in" in2="SourceGraphic"/></filter><filter id="k" x="0" y="0" width="95.322" height="95.322" filterUnits="userSpaceOnUse"><feOffset input="SourceAlpha"/><feGaussianBlur stdDeviation="5" result="l"/><feFlood flood-opacity="0.161"/><feComposite operator="in" in2="l"/></filter><filter id="m" x="0" y="0" width="95.322" height="95.322" filterUnits="userSpaceOnUse"><feOffset input="SourceAlpha"/><feGaussianBlur stdDeviation="5" result="n"/><feFlood flood-opacity="0.161" result="o"/><feComposite operator="out" in="SourceGraphic" in2="n"/><feComposite operator="in" in="o"/><feComposite operator="in" in2="SourceGraphic"/></filter></defs><g class="a" transform="translate(36.665 36.665)"><g data-type="innerShadowGroup"><g class="k" transform="matrix(1, 0, 0, 1, -36.66, -36.67)"><path class="b" d="M380.179,300.8l.333.192-.15.257a6.528,6.528,0,0,1-1.412,1.711,2.571,2.571,0,0,1-1.336.618,1.493,1.493,0,0,1-1.273-.343,1.157,1.157,0,0,1-.357-1.1c.09-.479.22-.951.354-1.419.412-1.445.836-2.887,1.248-4.329a4.428,4.428,0,0,0,.107-.607.588.588,0,0,0-.572-.648h-.463c.037-.125.067-.232.109-.354,0-.023.06-.039.095-.044,1.055-.181,2.111-.352,3.185-.516a4.288,4.288,0,0,1,.625,0c-.086.3-.169.59-.255.882q-.873,3.026-1.743,6.049c-.067.232-.1.463-.16.708a.331.331,0,0,0,.151.377.289.289,0,0,0,.373-.053,6.491,6.491,0,0,0,.583-.6c.183-.22.338-.463.5-.695a.774.774,0,0,1,.053-.083Z" transform="translate(-330.81 -249.84)"/></g><path class="c" d="M380.179,300.8l.333.192-.15.257a6.528,6.528,0,0,1-1.412,1.711,2.571,2.571,0,0,1-1.336.618,1.493,1.493,0,0,1-1.273-.343,1.157,1.157,0,0,1-.357-1.1c.09-.479.22-.951.354-1.419.412-1.445.836-2.887,1.248-4.329a4.428,4.428,0,0,0,.107-.607.588.588,0,0,0-.572-.648h-.463c.037-.125.067-.232.109-.354,0-.023.06-.039.095-.044,1.055-.181,2.111-.352,3.185-.516a4.288,4.288,0,0,1,.625,0c-.086.3-.169.59-.255.882q-.873,3.026-1.743,6.049c-.067.232-.1.463-.16.708a.331.331,0,0,0,.151.377.289.289,0,0,0,.373-.053,6.491,6.491,0,0,0,.583-.6c.183-.22.338-.463.5-.695a.774.774,0,0,1,.053-.083Z" transform="translate(-367.473 -286.505)"/><g class="j" transform="matrix(1, 0, 0, 1, -36.66, -36.67)"><path class="c" d="M380.179,300.8l.333.192-.15.257a6.528,6.528,0,0,1-1.412,1.711,2.571,2.571,0,0,1-1.336.618,1.493,1.493,0,0,1-1.273-.343,1.157,1.157,0,0,1-.357-1.1c.09-.479.22-.951.354-1.419.412-1.445.836-2.887,1.248-4.329a4.428,4.428,0,0,0,.107-.607.588.588,0,0,0-.572-.648h-.463c.037-.125.067-.232.109-.354,0-.023.06-.039.095-.044,1.055-.181,2.111-.352,3.185-.516a4.288,4.288,0,0,1,.625,0c-.086.3-.169.59-.255.882q-.873,3.026-1.743,6.049c-.067.232-.1.463-.16.708a.331.331,0,0,0,.151.377.289.289,0,0,0,.373-.053,6.491,6.491,0,0,0,.583-.6c.183-.22.338-.463.5-.695a.774.774,0,0,1,.053-.083Z" transform="translate(-330.81 -249.84)"/></g><path class="d" d="M380.179,300.8l.333.192-.15.257a6.528,6.528,0,0,1-1.412,1.711,2.571,2.571,0,0,1-1.336.618,1.493,1.493,0,0,1-1.273-.343,1.157,1.157,0,0,1-.357-1.1c.09-.479.22-.951.354-1.419.412-1.445.836-2.887,1.248-4.329a4.428,4.428,0,0,0,.107-.607.588.588,0,0,0-.572-.648h-.463c.037-.125.067-.232.109-.354,0-.023.06-.039.095-.044,1.055-.181,2.111-.352,3.185-.516a4.288,4.288,0,0,1,.625,0c-.086.3-.169.59-.255.882q-.873,3.026-1.743,6.049c-.067.232-.1.463-.16.708a.331.331,0,0,0,.151.377.289.289,0,0,0,.373-.053,6.491,6.491,0,0,0,.583-.6c.183-.22.338-.463.5-.695a.774.774,0,0,1,.053-.083Z" transform="translate(-367.473 -286.505)"/></g><g data-type="innerShadowGroup"><g class="i" transform="matrix(1, 0, 0, 1, -36.66, -36.67)"><path class="b" d="M462.6,150.389a1.424,1.424,0,0,1,1.412-1.438A1.444,1.444,0,1,1,462.6,150.4Z" transform="translate(-414.75 -109.12)"/></g><path class="c" d="M462.6,150.389a1.424,1.424,0,0,1,1.412-1.438A1.444,1.444,0,1,1,462.6,150.4Z" transform="translate(-451.413 -145.782)"/><g class="h" transform="matrix(1, 0, 0, 1, -36.66, -36.67)"><path class="c" d="M462.6,150.389a1.424,1.424,0,0,1,1.412-1.438A1.444,1.444,0,1,1,462.6,150.4Z" transform="translate(-414.75 -109.12)"/></g><path class="d" d="M462.6,150.389a1.424,1.424,0,0,1,1.412-1.438A1.444,1.444,0,1,1,462.6,150.4Z" transform="translate(-451.413 -145.782)"/></g><g data-type="innerShadowGroup"><g class="g" transform="matrix(1, 0, 0, 1, -36.66, -36.67)"><path class="b" d="M122.716,18.62a11.01,11.01,0,1,0,7.771,3.225,11,11,0,0,0-7.771-3.225Zm0,20.038a9.051,9.051,0,1,1,6.391-2.651,9.042,9.042,0,0,1-6.391,2.651Z" transform="translate(-75.06 18.04)"/></g><path class="c" d="M122.716,18.62a11.01,11.01,0,1,0,7.771,3.225,11,11,0,0,0-7.771-3.225Zm0,20.038a9.051,9.051,0,1,1,6.391-2.651,9.042,9.042,0,0,1-6.391,2.651Z" transform="translate(-111.72 -18.62)"/><g class="f" transform="matrix(1, 0, 0, 1, -36.66, -36.67)"><path class="c" d="M122.716,18.62a11.01,11.01,0,1,0,7.771,3.225,11,11,0,0,0-7.771-3.225Zm0,20.038a9.051,9.051,0,1,1,6.391-2.651,9.042,9.042,0,0,1-6.391,2.651Z" transform="translate(-75.06 18.04)"/></g><path class="d" d="M122.716,18.62a11.01,11.01,0,1,0,7.771,3.225,11,11,0,0,0-7.771-3.225Zm0,20.038a9.051,9.051,0,1,1,6.391-2.651,9.042,9.042,0,0,1-6.391,2.651Z" transform="translate(-111.72 -18.62)"/></g><path class="e" d="M378.867,298.559l.23.127-.1.17a4.357,4.357,0,0,1-.973,1.13,1.807,1.807,0,0,1-.921.408,1.061,1.061,0,0,1-.878-.226.762.762,0,0,1-.225-.333.733.733,0,0,1-.021-.4c.062-.317.152-.629.244-.938.284-.954.576-1.907.86-2.86a2.817,2.817,0,0,0,.073-.4.378.378,0,0,0-.1-.3.412.412,0,0,0-.295-.131h-.319c.026-.083.046-.153.075-.234,0-.015.042-.026.065-.029.727-.119,1.455-.233,2.2-.341a3.074,3.074,0,0,1,.431,0c-.059.2-.117.39-.175.583q-.6,2-1.2,4c-.046.153-.072.306-.11.468a.215.215,0,0,0,.1.249.206.206,0,0,0,.257-.035,4.377,4.377,0,0,0,.4-.4c.126-.145.233-.306.348-.459A.511.511,0,0,1,378.867,298.559Z" transform="translate(-366.473 -286.505)"/><path class="e" d="M462.6,150.27a1.334,1.334,0,0,1,.36-.928,1.234,1.234,0,0,1,.886-.391,1.249,1.249,0,0,1,.913.37,1.363,1.363,0,0,1,.028,1.88,1.241,1.241,0,0,1-1.809.016,1.351,1.351,0,0,1-.378-.939Z" transform="translate(-451.413 -144.782)"/><path class="e" d="M119.873,18.62a8.163,8.163,0,1,0,5.762,2.391,8.152,8.152,0,0,0-5.762-2.391Zm0,14.857a6.711,6.711,0,1,1,4.739-1.965,6.7,6.7,0,0,1-4.739,1.965Z" transform="translate(-108.72 -17.62)"/></g></svg>