<svg xmlns="http://www.w3.org/2000/svg" width="23.231" height="23.231" viewBox="0 0 23.231 23.231"><defs><style>.a{fill:#fff;}</style></defs><path class="a" d="M3.553,15.169A.553.553,0,0,1,3,14.616V4.106A1.107,1.107,0,0,1,4.106,3h9.956a1.107,1.107,0,0,1,1.106,1.106V11.85a1.107,1.107,0,0,1-1.106,1.106H5.995l-2.05,2.05A.553.553,0,0,1,3.553,15.169ZM14.063,4.105H4.106V13.28l1.268-1.268a.553.553,0,0,1,.391-.162h8.3ZM25.678,26.231a.553.553,0,0,1-.391-.162l-2.05-2.05H15.169a1.107,1.107,0,0,1-1.106-1.106V15.169a1.107,1.107,0,0,1,1.106-1.106h9.956a1.107,1.107,0,0,1,1.106,1.106V25.678A.553.553,0,0,1,25.678,26.231ZM15.169,15.169v7.744h8.3a.553.553,0,0,1,.391.162l1.268,1.268V15.169Z" transform="translate(-3 -3)"/></svg>