<svg xmlns="http://www.w3.org/2000/svg" width="12.714" height="16.594" viewBox="0 0 12.714 16.594"><defs><style>.a{fill:#fff;}</style></defs><path class="a" d="M13.106,9.213a.553.553,0,0,1-.553-.553V7.553a.553.553,0,1,1,1.106,0V8.659A.553.553,0,0,1,13.106,9.213Zm2.213,3.319-.044,0a4.161,4.161,0,0,1-3.188-1.913.553.553,0,1,1,.933-.6,3.051,3.051,0,0,0,2.342,1.4.553.553,0,0,1-.043,1.105Zm6.636,11.063a.553.553,0,0,1-.494-.8l2.213-4.425a.553.553,0,0,1,.989.494l-2.213,4.425a.553.553,0,0,1-.494.306Z" transform="translate(-12 -7)"/></svg>