<svg xmlns="http://www.w3.org/2000/svg" xmlns:xlink="http://www.w3.org/1999/xlink" width="78" height="76" viewBox="0 0 78 76"><defs><style>.a,.b{fill:#fff;fill-rule:evenodd;}.a{opacity:0;}.c{filter:url(#c);}.d{filter:url(#a);}</style><filter id="a" x="0" y="0" width="78" height="76" filterUnits="userSpaceOnUse"><feOffset input="SourceAlpha"/><feGaussianBlur stdDeviation="5" result="b"/><feFlood flood-color="#fff"/><feComposite operator="in" in2="b"/><feComposite in="SourceGraphic"/></filter><filter id="c" x="0" y="0" width="78" height="76" filterUnits="userSpaceOnUse"><feOffset input="SourceAlpha"/><feGaussianBlur stdDeviation="5" result="d"/><feFlood flood-color="#fff" result="e"/><feComposite operator="out" in="SourceGraphic" in2="d"/><feComposite operator="in" in="e"/><feComposite operator="in" in2="SourceGraphic"/></filter></defs><g transform="translate(30 30)"><g data-type="innerShadowGroup"><g class="d" transform="matrix(1, 0, 0, 1, -30, -30)"><path class="a" d="M6.16,1022.916a.274.274,0,0,0-.091.024l-5.9,2.655a.291.291,0,0,0-.168.235.3.3,0,0,0,.114.268L2.647,1028l-2.531,1.906a.3.3,0,0,0-.114.268.291.291,0,0,0,.168.235l2.643,1.189v4.272a.3.3,0,0,0,.007.067.294.294,0,0,0,.168.335l5.9,2.608a.237.237,0,0,0,.035.011h.008l.011.006.022.006h.007a.26.26,0,0,0,.055,0l.024-.006h.011l.021-.006.026-.009.011-.006,5.9-2.608a.294.294,0,0,0,.169-.336.3.3,0,0,0,.006-.066v-4.3l2.644-1.19a.291.291,0,0,0,.167-.235.3.3,0,0,0-.113-.267l-2.629-1.981,0-.006,0-.006,2.373-1.787a.3.3,0,0,0,.114-.268.29.29,0,0,0-.168-.235l-5.9-2.654a.27.27,0,0,0-.278.031l-2.517,1.9-2.531-1.907a.275.275,0,0,0-.186-.056Zm-.014.627,2.3,1.731-5.332,2.362-2.267-1.708,5.3-2.386Zm5.449.009,5.3,2.386-2.163,1.629L9.4,1025.2l2.194-1.652ZM9,1025.661,14.276,1028,9,1030.337l-1.7-.752-2.181-.966-1.4-.621Zm5.9,2.7,2.258,1.7-5.3,2.386-2.289-1.725Zm-11.773.009,1.776.787,2.181.966,1.373.609-2.308,1.74-5.3-2.386,2.278-1.715Zm6.157,2.859,2.373,1.787a.273.273,0,0,0,.277.032l2.694-1.212v3.982l-5.344,2.364v-6.952Zm-.562.023v6.93l-5.344-2.364v-3.958l2.694,1.212a.273.273,0,0,0,.277-.032l2.373-1.788Zm2.8,3.228h0a.277.277,0,0,0-.1.025l-1.5.663a.3.3,0,0,0-.148.383.278.278,0,0,0,.37.153l1.5-.663a.293.293,0,0,0,.172-.333.283.283,0,0,0-.29-.229Zm1.5.4h0a.268.268,0,0,0-.1.025l-1.5.662-1.5.663a.289.289,0,0,0-.18.234.3.3,0,0,0,.114.275.273.273,0,0,0,.288.026l1.5-.661,1.5-.663a.294.294,0,0,0,.171-.333.283.283,0,0,0-.289-.229Z" transform="translate(30 -992.91)"/></g><g class="c" transform="matrix(1, 0, 0, 1, -30, -30)"><path class="a" d="M6.16,1022.916a.274.274,0,0,0-.091.024l-5.9,2.655a.291.291,0,0,0-.168.235.3.3,0,0,0,.114.268L2.647,1028l-2.531,1.906a.3.3,0,0,0-.114.268.291.291,0,0,0,.168.235l2.643,1.189v4.272a.3.3,0,0,0,.007.067.294.294,0,0,0,.168.335l5.9,2.608a.237.237,0,0,0,.035.011h.008l.011.006.022.006h.007a.26.26,0,0,0,.055,0l.024-.006h.011l.021-.006.026-.009.011-.006,5.9-2.608a.294.294,0,0,0,.169-.336.3.3,0,0,0,.006-.066v-4.3l2.644-1.19a.291.291,0,0,0,.167-.235.3.3,0,0,0-.113-.267l-2.629-1.981,0-.006,0-.006,2.373-1.787a.3.3,0,0,0,.114-.268.29.29,0,0,0-.168-.235l-5.9-2.654a.27.27,0,0,0-.278.031l-2.517,1.9-2.531-1.907a.275.275,0,0,0-.186-.056Zm-.014.627,2.3,1.731-5.332,2.362-2.267-1.708,5.3-2.386Zm5.449.009,5.3,2.386-2.163,1.629L9.4,1025.2l2.194-1.652ZM9,1025.661,14.276,1028,9,1030.337l-1.7-.752-2.181-.966-1.4-.621Zm5.9,2.7,2.258,1.7-5.3,2.386-2.289-1.725Zm-11.773.009,1.776.787,2.181.966,1.373.609-2.308,1.74-5.3-2.386,2.278-1.715Zm6.157,2.859,2.373,1.787a.273.273,0,0,0,.277.032l2.694-1.212v3.982l-5.344,2.364v-6.952Zm-.562.023v6.93l-5.344-2.364v-3.958l2.694,1.212a.273.273,0,0,0,.277-.032l2.373-1.788Zm2.8,3.228h0a.277.277,0,0,0-.1.025l-1.5.663a.3.3,0,0,0-.148.383.278.278,0,0,0,.37.153l1.5-.663a.293.293,0,0,0,.172-.333.283.283,0,0,0-.29-.229Zm1.5.4h0a.268.268,0,0,0-.1.025l-1.5.662-1.5.663a.289.289,0,0,0-.18.234.3.3,0,0,0,.114.275.273.273,0,0,0,.288.026l1.5-.661,1.5-.663a.294.294,0,0,0,.171-.333.283.283,0,0,0-.289-.229Z" transform="translate(30 -992.91)"/></g></g><path class="b" d="M6.16,1022.916a.274.274,0,0,0-.091.024l-5.9,2.655a.291.291,0,0,0-.168.235.3.3,0,0,0,.114.268L2.647,1028l-2.531,1.906a.3.3,0,0,0-.114.268.291.291,0,0,0,.168.235l2.643,1.189v4.272a.3.3,0,0,0,.007.067.294.294,0,0,0,.168.335l5.9,2.608a.237.237,0,0,0,.035.011h.008l.011.006.022.006h.007a.26.26,0,0,0,.055,0l.024-.006h.011l.021-.006.026-.009.011-.006,5.9-2.608a.294.294,0,0,0,.169-.336.3.3,0,0,0,.006-.066v-4.3l2.644-1.19a.291.291,0,0,0,.167-.235.3.3,0,0,0-.113-.267l-2.629-1.981,0-.006,0-.006,2.373-1.787a.3.3,0,0,0,.114-.268.29.29,0,0,0-.168-.235l-5.9-2.654a.27.27,0,0,0-.278.031l-2.517,1.9-2.531-1.907a.275.275,0,0,0-.186-.056Zm-.014.627,2.3,1.731-5.332,2.362-2.267-1.708,5.3-2.386Zm5.449.009,5.3,2.386-2.163,1.629L9.4,1025.2l2.194-1.652ZM9,1025.661,14.276,1028,9,1030.337l-1.7-.752-2.181-.966-1.4-.621Zm5.9,2.7,2.258,1.7-5.3,2.386-2.289-1.725Zm-11.773.009,1.776.787,2.181.966,1.373.609-2.308,1.74-5.3-2.386,2.278-1.715Zm6.157,2.859,2.373,1.787a.273.273,0,0,0,.277.032l2.694-1.212v3.982l-5.344,2.364v-6.952Zm-.562.023v6.93l-5.344-2.364v-3.958l2.694,1.212a.273.273,0,0,0,.277-.032l2.373-1.788Zm2.8,3.228h0a.277.277,0,0,0-.1.025l-1.5.663a.3.3,0,0,0-.148.383.278.278,0,0,0,.37.153l1.5-.663a.293.293,0,0,0,.172-.333.283.283,0,0,0-.29-.229Zm1.5.4h0a.268.268,0,0,0-.1.025l-1.5.662-1.5.663a.289.289,0,0,0-.18.234.3.3,0,0,0,.114.275.273.273,0,0,0,.288.026l1.5-.661,1.5-.663a.294.294,0,0,0,.171-.333.283.283,0,0,0-.289-.229Z" transform="translate(0 -1022.91)"/></g></svg>