<svg xmlns="http://www.w3.org/2000/svg" width="11.982" height="14.625" viewBox="0 0 11.982 14.625"><defs><style>.a{fill:#fff;}</style></defs><path class="a" d="M9.455,1.188h0l.008.008c.012.01.035.03.071.058a3.855,3.855,0,0,0,.381.256,9.869,9.869,0,0,0,1.948.855,17.162,17.162,0,0,0,2,.561c.191.038.318.056.39.064L14.323,3h0a.666.666,0,0,1,.655.666v4.66c0,2.294-1.519,4.127-2.89,5.327a15.1,15.1,0,0,1-1.916,1.416c-.261.163-.479.289-.634.374a1.927,1.927,0,0,1-.393.162.553.553,0,0,1-.316,0,1.913,1.913,0,0,1-.393-.163c-.155-.086-.373-.211-.634-.374A15.1,15.1,0,0,1,5.89,13.649C4.519,12.45,3,10.616,3,8.322V3.663A.666.666,0,0,1,3.655,3h0l.068-.006c.072-.008.2-.026.39-.064a17.159,17.159,0,0,0,2-.561,9.868,9.868,0,0,0,1.948-.855,3.855,3.855,0,0,0,.381-.256c.036-.028.059-.048.071-.058l.008-.008a.666.666,0,0,1,.929,0Z" transform="translate(-3 -1)"/></svg>