<svg xmlns="http://www.w3.org/2000/svg" width="54.421" height="60.818" viewBox="0 0 54.421 60.818"><defs><style>.a{fill:#fff;}</style></defs><path class="a" d="M153.714,72.581a.556.556,0,0,0-.059.1c-.2.429-.341.764-.513,1.113-.641-.63-.977-.314-1.214.141A2.064,2.064,0,0,0,151.7,75.1l.207.923a8.041,8.041,0,0,1-.2,1.129c.378.207.989.646,1.663,1.12.743-.547,1.585-1.177,1.585-1.177a12.067,12.067,0,0,0,.979-.9c.787-.844.405-1.468-.247-2.088a.62.62,0,0,1-.213-.372.923.923,0,0,0-.735-.688.619.619,0,0,0-.372-.612.519.519,0,0,0-.651.152Z" transform="translate(-127.979 -61.063)"/><path class="a" d="M75.931,2l-.042,0a4.207,4.207,0,0,0-2.494,1.225l-.767.809A3.261,3.261,0,0,0,71.6,6.025a4.927,4.927,0,0,0,.166,2.187A5.742,5.742,0,0,0,73,10.2c.631.633,1.158,1.032,1.226,1.592a1.041,1.041,0,0,1,0,.172l.038.016a16.461,16.461,0,0,1,1.586.731,15.337,15.337,0,0,1,1.609,1.075l.234-.534.232-.575a5.677,5.677,0,0,0,.2-.654.207.207,0,0,1,.241-.127,2.858,2.858,0,0,0,1.527-.157,1.186,1.186,0,0,0,.638-.618,2.5,2.5,0,0,0,.187-.6,5.89,5.89,0,0,0,.1-.9.951.951,0,0,1,.206-.408c.161-.182.424-.327.281-.633a.579.579,0,0,0-.27-.259c-.575-.294-.619-1.155-.653-1.776a4.733,4.733,0,0,0-.062-.9,3.787,3.787,0,0,0-2.048-3.216A4.072,4.072,0,0,0,75.931,2Z" transform="translate(-60.37 -1.664)"/><path class="a" d="M150.538,80.045c-.065-.292-.128-.584-.2-.875-.006-.027-.012-.054-.019-.081s0,.056,0,0,0-.109,0-.164a2.158,2.158,0,0,1,.322-.92c.013-.017.013-.019,0,0l.021-.025c.021-.024.043-.045.065-.068.036-.038-.006,0,.019-.016a.448.448,0,0,1,.063-.035c-.072.029.063-.006-.02.005a.368.368,0,0,1,.06,0c-.051,0,.036.008.047.011a.285.285,0,0,1,.068.029.32.32,0,0,0,.427-.112.316.316,0,0,0-.112-.427.828.828,0,0,0-.982.094,1.892,1.892,0,0,0-.471.814,2.1,2.1,0,0,0-.128.87,10.655,10.655,0,0,0,.233,1.075.313.313,0,1,0,.6-.166Z" transform="translate(-126.31 -65.169)"/><path class="a" d="M158.259,72.723c.248-.453.453-.927.669-1.4.082-.179.176-.369.4-.243a.316.316,0,0,1,.162.314.317.317,0,0,0,.23.3.68.68,0,0,1,.426.258c.111.153.109.354.21.516.2.32.552.514.708.873a.859.859,0,0,1-.235.924,10.81,10.81,0,0,1-1.029.959c-.3.266.141.707.442.442.69-.607,1.839-1.423,1.426-2.491a2.146,2.146,0,0,0-.359-.589,3.63,3.63,0,0,0-.249-.271.785.785,0,0,1-.19-.21c-.051-.114-.063-.24-.118-.354a1.18,1.18,0,0,0-.212-.3,1.291,1.291,0,0,0-.652-.358l.229.3a.949.949,0,0,0-.314-.74.9.9,0,0,0-1.025-.129,1.732,1.732,0,0,0-.57.884c-.152.337-.31.671-.487,1-.193.353.346.669.54.315Z" transform="translate(-133.044 -59.419)"/><path class="a" d="M150.646,99.208c.708.46,1.429.9,2.135,1.363.08.052.159.1.237.158l.079.055c.071.05-.037-.031-.011-.009a.32.32,0,0,0,.442,0,.315.315,0,0,0,0-.442,7.662,7.662,0,0,0-.916-.614q-.644-.413-1.29-.821c-.12-.076-.242-.151-.361-.229a.313.313,0,1,0-.315.54Z" transform="translate(-126.979 -83.214)"/><path class="a" d="M156.132,100.962c-.354-.214-.727-.432-1.055-.611a.35.35,0,0,0-.448.1c-.051.068-.1.138-.151.208a.349.349,0,0,0,.086.489c.275.191.7.481,1.027.7a.35.35,0,0,0,.5-.123l.164-.3A.35.35,0,0,0,156.132,100.962Z" transform="translate(-130.289 -84.635)"/><path class="a" d="M154.6,99.019q-.3-.183-.609-.361l-.283-.16a1.338,1.338,0,0,0-.333-.156.68.68,0,0,0-.706.279.882.882,0,0,0-.254.617.66.66,0,0,0,.117.329,1.089,1.089,0,0,0,.273.24l.478.33a5.163,5.163,0,0,0,.5.338.664.664,0,0,0,.685-.039.87.87,0,0,0,.256-.317,1.9,1.9,0,0,0,.172-.349.674.674,0,0,0-.3-.75.315.315,0,0,0-.428.112.319.319,0,0,0,.112.427c.055.036,0,0,0,0,.017.042.009.008,0-.008.009.013.016.027.024.041-.007-.012-.017-.061-.006-.008s.016,0,0-.013c0,0,0,.047,0,.048-.011,0,.025-.078,0-.012-.014.034-.009.013,0-.005-.045.069-.08.147-.119.22-.019.035-.04.069-.057.1,0-.006.038-.056,0-.007s.025-.022,0,0c-.008.008-.054.029-.013.01s0,0-.005,0c-.063.022.018,0,.016,0s-.043,0-.046,0c.016.023.058,0,.015,0s-.011,0,.008.007c-.034-.02-.067-.041-.1-.062l-.4-.275-.382-.263-.156-.108c-.009-.006-.043-.039-.017-.011s-.034-.033,0,0,0-.009-.01-.017c-.025-.031.029.05,0,0s0,.017,0,.014a.256.256,0,0,1,0-.047s-.018.078,0,.013c.007-.025.023-.031-.005.007.047-.065.091-.134.139-.2s.016-.018.005-.008l.036-.036c-.047.045-.01.014,0,.006s-.065.037-.007,0c.016-.01.058,0-.011,0h.049c-.018,0-.058-.019-.01,0s-.025-.022.01,0a2.23,2.23,0,0,0,.247.137l.257.147q.27.156.537.319a.313.313,0,0,0,.315-.54Z" transform="translate(-128.603 -82.961)"/><path class="a" d="M65.762,142.426a6.482,6.482,0,0,1-1.016.311,5.784,5.784,0,0,0,.323,1.181,2.845,2.845,0,0,0,.242.427A18.682,18.682,0,0,0,66,142.333Z" transform="translate(-54.631 -120.093)"/><path class="a" d="M15.94,265.869H2v7.2H55.8V251.93H37.934v7.048H19.967v6.891Z" transform="translate(-1.688 -212.568)"/><path class="a" d="M98.711,123.127a56.748,56.748,0,0,1-9.788,3.741.227.227,0,0,0-.017.436l3.266,1.083a.228.228,0,0,1,.1.369c-5.115,5.752-18.816,12.2-27.23,15a.227.227,0,0,0,.109.44c5.617-.95,16.332-4.051,19.7-5.667a35.192,35.192,0,0,0,9.505-6.441.226.226,0,0,1,.363.053c.429.833.98,1.951,1.5,3.113a.227.227,0,0,0,.427-.03,110.384,110.384,0,0,0,2.385-11.856.227.227,0,0,0-.319-.239Z" transform="translate(-54.747 -103.87)"/><path class="a" d="M115.625,309.448v-14.1l-.312.312h17.967a.313.313,0,0,0,0-.625H115.312a.317.317,0,0,0-.312.313v14.1A.313.313,0,0,0,115.625,309.448Z" transform="translate(-97.033 -248.942)"/><path class="a" d="M.625,346.667v-7.2l-.312.313H18.279a.313.313,0,0,0,0-.625H.312a.317.317,0,0,0-.312.312v7.2A.313.313,0,0,0,.625,346.667Z" transform="translate(0 -286.161)"/><path class="a" d="M54.166,385.263H.37a.313.313,0,0,0,0,.625h53.8A.313.313,0,0,0,54.166,385.263Z" transform="translate(-0.057 -325.07)"/><path class="a" d="M230.625,271.386V250.242l-.312.313h17.863l-.312-.312v21.144a.313.313,0,0,0,.625,0V250.242a.317.317,0,0,0-.312-.312H230.312a.317.317,0,0,0-.312.312v21.144A.313.313,0,0,0,230.625,271.386Z" transform="translate(-194.066 -210.88)"/><path class="a" d="M36.221,305.122c-.527-.317-1.075-.645-1.7-1a1.367,1.367,0,0,1-.74-1.2,1.545,1.545,0,0,1,.134-.7,2.325,2.325,0,0,1,1.4-1.437l.866-.231c.881.287,1.769.57,2.536.771,0,.361,0,.627,0,.627a2.338,2.338,0,0,0,.778,1.519,6.7,6.7,0,0,1,1.149,1.31,1.405,1.405,0,0,1-.08,1.628,1.3,1.3,0,0,1-1.049.328,2.871,2.871,0,0,1-1.079-.339C37.643,305.978,36.953,305.562,36.221,305.122Z" transform="translate(-28.502 -253.601)"/><path class="a" d="M36.73,301.5c.035,1.148,1.012,1.783,1.685,2.577a1.625,1.625,0,0,1,.455,1.211.8.8,0,0,1-.85.693,2.976,2.976,0,0,1-1.469-.5c-.465-.257-.923-.526-1.379-.8s-.931-.561-1.4-.836c-.257-.151-.519-.3-.775-.447a1.223,1.223,0,0,1-.44-.41,1.357,1.357,0,0,1,.1-1.368,1.853,1.853,0,0,1,1.062-.984.313.313,0,0,0-.166-.6,2.29,2.29,0,0,0-1.242.953,2.543,2.543,0,0,0-.521,1.542,1.7,1.7,0,0,0,.773,1.334c.264.18.558.324.834.486s.558.329.835.5c.519.312,1.037.625,1.562.926a5.915,5.915,0,0,0,1.7.779,1.73,1.73,0,0,0,1.636-.39,1.6,1.6,0,0,0,.306-1.5,3.576,3.576,0,0,0-1.095-1.56,2.533,2.533,0,0,1-.984-1.6c-.012-.4-.637-.4-.625,0Z" transform="translate(-26.821 -253.145)"/><path class="a" d="M139.015,275.016c-.588-.012-1.178-.017-1.766.01a1.379,1.379,0,0,1-1.274-.624,1.589,1.589,0,0,1-.252-.789c.008-.957.063-1.91,1.312-2.273.937.03,2.111.069,3.093.091a2.932,2.932,0,0,0,1.109.547,6.706,6.706,0,0,1,1.65.56,1.406,1.406,0,0,1,.745,1.45,1.3,1.3,0,0,1-.744.809,2.893,2.893,0,0,1-1.1.246C140.876,275.076,139.948,275.036,139.015,275.016Z" transform="translate(-114.519 -228.946)"/><path class="a" d="M137.86,268c.553.9,1.609,1.035,2.532,1.317a1.9,1.9,0,0,1,1.136.746.781.781,0,0,1-.152,1.057,2.336,2.336,0,0,1-1.489.409c-.576.014-1.152,0-1.728-.013s-1.166-.032-1.749-.03c-.279,0-.558.012-.837.02a1.233,1.233,0,0,1-.636-.129,1.256,1.256,0,0,1-.573-1.219,1.891,1.891,0,0,1,.453-1.4c.292-.278-.15-.719-.442-.442a2.2,2.2,0,0,0-.614,1.447,2.4,2.4,0,0,0,.295,1.633,1.7,1.7,0,0,0,1.327.734c.314.021.636-.016.951-.017.343,0,.685,0,1.028.009.667.014,1.335.039,2,.039a4.78,4.78,0,0,0,1.9-.257,1.588,1.588,0,0,0,1.018-1.195,1.655,1.655,0,0,0-.614-1.427,4.323,4.323,0,0,0-1.8-.75,2.306,2.306,0,0,1-1.473-.845c-.211-.342-.751-.028-.54.315Z" transform="translate(-112.842 -225.738)"/><path class="a" d="M48.9,177.091q-.181-.05-.352-.1c-.757-.23-1.473-.442-2.044-.644-.051.741-.033,1.425-.117,2.409a28.407,28.407,0,0,1-.508,3.164c-.929,4.433-2.254,8.336-3.74,13.1a.365.365,0,0,0,.244.455c1.153.375,2.389.788,3.407,1.054a.662.662,0,0,0,.247.042c.209-.027.3-.266.377-.461,2.6-6.84,4.485-11.909,5.378-14.163,1.187.121,3.129.31,4.1.49a1.622,1.622,0,0,1,1.119.518,2.04,2.04,0,0,1,.334,1.278c-.035,2.265-.048,3.978-.105,6.492a.433.433,0,0,0,.417.447c1.048.033,2.542.085,3.7.107a.43.43,0,0,0,.439-.415c.075-2.146.2-4.99.2-7.048a8.742,8.742,0,0,0-.315-2.66,3.746,3.746,0,0,0-1.133-1.6,6.644,6.644,0,0,0-1.293-.833c-1.7-.844-3.031-1.022-5.12-1.971a2.185,2.185,0,0,1-.652.436C52.292,177.773,50.386,177.5,48.9,177.091Z" transform="translate(-35.544 -148.791)"/><path class="a" d="M104.656,177.979c1.129.5,2.3.862,3.463,1.275a7.85,7.85,0,0,1,2.974,1.63,3.983,3.983,0,0,1,.589.725,2.814,2.814,0,0,1,.324.844,8.063,8.063,0,0,1,.213,1.7c.033,1.225-.014,2.454-.052,3.679-.039,1.25-.09,2.5-.135,3.751,0,.076.021.194-.045.252s-.241.025-.333.023q-.472-.01-.943-.024c-.636-.018-1.272-.039-1.908-.059l-.414-.013c-.083,0-.211.024-.272-.048s-.023-.295-.021-.4q.006-.26.011-.519.02-.984.035-1.97c.019-1.241.047-2.482.053-3.722a2.143,2.143,0,0,0-.53-1.586,2.385,2.385,0,0,0-1.317-.514c-1.079-.182-2.174-.284-3.262-.394l-.761-.076a.315.315,0,0,0-.312.312.319.319,0,0,0,.312.312c1.121.112,2.244.216,3.359.373a3.85,3.85,0,0,1,1.4.326c.452.269.488.874.481,1.344q-.027,1.926-.055,3.852-.016,1.038-.038,2.075a1.489,1.489,0,0,0,.132.944.915.915,0,0,0,.81.318c.641.02,1.282.042,1.923.061l1,.027a1.938,1.938,0,0,0,.9-.066.792.792,0,0,0,.419-.738q.016-.46.033-.92.036-.971.072-1.942c.045-1.28.087-2.56.091-3.841a13.453,13.453,0,0,0-.09-1.885,4.62,4.62,0,0,0-.521-1.759,6,6,0,0,0-2.915-2.264c-1.1-.47-2.246-.787-3.359-1.21q-.5-.191-.993-.408a.323.323,0,0,0-.428.112.315.315,0,0,0,.112.427Z" transform="translate(-86.074 -149.682)"/><path class="a" d="M44.6,173.32c-.06.7-.056,1.411-.1,2.116a20.572,20.572,0,0,1-.283,2.307c-.26,1.5-.616,2.991-1,4.466-.835,3.207-1.875,6.355-2.863,9.516-.118.377-.273.769.059,1.088a1.184,1.184,0,0,0,.48.226l.62.2c.776.252,1.553.5,2.34.72.359.1.72.217,1-.1a3.343,3.343,0,0,0,.468-1.05q.455-1.2.908-2.4,1.475-3.9,2.945-7.794c.729-1.922,1.49-3.83,2.22-5.751l.352-.93a.315.315,0,0,0-.219-.384.319.319,0,0,0-.385.219c-.734,1.938-1.5,3.864-2.238,5.8q-1.333,3.5-2.651,7.013-.862,2.281-1.728,4.562c-.028.074-.1.3-.151.312a2.481,2.481,0,0,1-.422-.121c-.372-.1-.741-.214-1.109-.329-.391-.122-.78-.247-1.168-.374l-.551-.18c-.086-.028-.293-.042-.3-.149a1.153,1.153,0,0,1,.1-.308l.092-.295.194-.619.383-1.213q.364-1.155.725-2.311c.462-1.49.912-2.985,1.318-4.492.4-1.48.76-2.971,1.057-4.475q.2-1.012.326-2.036c.094-.751.127-1.5.152-2.258.011-.328.025-.656.053-.984.034-.4-.591-.4-.625,0Z" transform="translate(-33.929 -145.986)"/><path class="a" d="M76.081,1.994a4.048,4.048,0,0,1,2.2.436,3.7,3.7,0,0,1,1.944,2.545l-.867.473c-.386.228-.916.676-1.216.9a.112.112,0,0,1-.172-.108.66.66,0,0,0-.039-.223c-.032-.091-.1-.123-.154-.088a6.315,6.315,0,0,0-1.5,1.924.805.805,0,0,0-.446-.3.591.591,0,0,0-.5.09.867.867,0,0,0-.267.723,1.5,1.5,0,0,0,.439,1l-.03.041a10.7,10.7,0,0,1-1.493,1.817A10.372,10.372,0,0,0,73,10.2a5.742,5.742,0,0,1-1.233-1.99A4.927,4.927,0,0,1,71.6,6.027a3.262,3.262,0,0,1,1.025-1.981l.767-.809a4.206,4.206,0,0,1,2.494-1.225Q75.983,2,76.081,1.994Z" transform="translate(-60.366 -1.667)"/><path class="a" d="M93.784,35.916a1.047,1.047,0,0,0-.993-.318.934.934,0,0,0-.654.71,1.778,1.778,0,0,0,.47,1.608,2.317,2.317,0,0,0,.841.518.315.315,0,0,0,.384-.219.32.32,0,0,0-.219-.384l-.061-.024-.013-.006-.085-.04a2.043,2.043,0,0,1-.183-.1c-.025-.016-.048-.033-.072-.049-.075-.05.04.037-.027-.02a1.819,1.819,0,0,1-.143-.133c-.019-.02-.036-.041-.055-.062s-.023-.028,0,0l-.024-.033a1.76,1.76,0,0,1-.093-.152c0-.009-.045-.094-.031-.062s-.022-.058-.025-.068a1.623,1.623,0,0,1-.051-.183q-.011-.052-.019-.1c.009.055,0-.03,0-.041a1,1,0,0,1,0-.216c-.007.054.008-.032.01-.042.007-.031.017-.061.026-.091s.015-.04,0-.013c.009-.019.018-.037.028-.055s.054-.08.02-.036a.407.407,0,0,1,.063-.063c-.05.04.083-.035.033-.017.009,0,.1-.022.051-.016a.5.5,0,0,1,.107,0,.592.592,0,0,1,.141.047s.079.054.041.024a.924.924,0,0,1,.094.089.312.312,0,0,0,.442-.442Z" transform="translate(-77.71 -30.014)"/><path class="a" d="M120.462,35.507c.08.19.095.645-.254.723-.467.05-.555-.493-.427-.768A.365.365,0,0,1,120.462,35.507Z" transform="translate(-101.022 -29.74)"/><path class="a" d="M111.518,23.2a13.869,13.869,0,0,0,.257,2.184,1.406,1.406,0,0,0,.6.772c.067.039.2.094.165.187-.017.049-.083.09-.119.125a1.657,1.657,0,0,0-.2.233,2.525,2.525,0,0,0-.255,1.128,1.691,1.691,0,0,1-.455,1.071,1.776,1.776,0,0,1-.947.3,2.176,2.176,0,0,1-.5,0,.627.627,0,0,0-.589.106.717.717,0,0,0-.177.372,5.214,5.214,0,0,1-.168.512c-.074.189-.151.376-.227.564a.314.314,0,0,0,.219.384.32.32,0,0,0,.384-.219c.071-.177.144-.354.214-.532.048-.122.091-.245.13-.37q.036-.114.066-.23a.223.223,0,0,0,.014-.057c-.019-.1-.079.1-.1.057.017.031.236.039.258.041a2.385,2.385,0,0,0,.261.011,3.571,3.571,0,0,0,.673-.077,1.929,1.929,0,0,0,.969-.449,2.069,2.069,0,0,0,.537-1.1,6.325,6.325,0,0,0,.1-.683.917.917,0,0,1,.114-.488c.086-.12.211-.208.3-.328a.647.647,0,0,0,.114-.558.836.836,0,0,0-.349-.47,1.018,1.018,0,0,1-.322-.259,2.061,2.061,0,0,1-.253-1.011,11.743,11.743,0,0,0-.109-1.381c-.075-.394-.678-.227-.6.166Z" transform="translate(-91.878 -19.243)"/><path class="a" d="M86.6,47.711c-.1.142-.2.286-.307.429l-.173.237-.1.128-.045.058c-.059.077.037-.047-.023.03a5.589,5.589,0,0,1-.816.884.314.314,0,0,0,0,.442.321.321,0,0,0,.442,0,5.65,5.65,0,0,0,.834-.907c.25-.322.484-.654.723-.984a.314.314,0,0,0-.112-.427.321.321,0,0,0-.428.112Z" transform="translate(-71.762 -40.126)"/><path class="a" d="M125.077,50.849a3.6,3.6,0,0,1-.416-.025l.083.011a1.63,1.63,0,0,1-.306-.071.312.312,0,0,0-.353.459.344.344,0,0,0,.187.144,2.6,2.6,0,0,0,.805.108.321.321,0,0,0,.221-.092.312.312,0,0,0-.221-.533Z" transform="translate(-104.663 -42.821)"/><path class="a" d="M70.744,13.368a4.12,4.12,0,0,0-1.1,3.779,4.821,4.821,0,0,0,.7,1.819,8.266,8.266,0,0,0,1.279,1.5,2.334,2.334,0,0,1,.582.729,1.347,1.347,0,0,1-.016.752c-.08.393.522.561.6.166a1.778,1.778,0,0,0-.207-1.5c-.37-.514-.895-.888-1.294-1.377A4.512,4.512,0,0,1,70.251,15.6a2.991,2.991,0,0,1,.935-1.787c.306-.262-.138-.7-.442-.442Z" transform="translate(-58.707 -11.209)"/><path class="a" d="M101.292,24.779a6.74,6.74,0,0,1,.612-.887c.111-.137.227-.27.35-.4.055-.056.11-.111.169-.164a.564.564,0,0,1,.147-.113l-.158.043q-.2-.175-.147-.031a.16.16,0,0,0,0,.042.8.8,0,0,0,.028.15.434.434,0,0,0,.287.275c.24.07.417-.116.588-.25a9.423,9.423,0,0,1,.954-.7.313.313,0,0,0-.315-.54,7.072,7.072,0,0,0-.672.477l-.328.257-.141.112-.022.018c-.023.017-.071.035-.034.028h.166c.042.006.127.284.112.113,0-.042-.009-.084-.017-.125a.7.7,0,0,0-.081-.235.425.425,0,0,0-.461-.2,1.573,1.573,0,0,0-.589.482,7.388,7.388,0,0,0-.987,1.334.313.313,0,0,0,.54.315Z" transform="translate(-84.975 -18.696)"/><path class="a" d="M81.957,1.775A3.881,3.881,0,0,1,85.309.645a3.56,3.56,0,0,1,2.453,1.517,3.91,3.91,0,0,1,.594,1.774.321.321,0,0,0,.312.312.315.315,0,0,0,.312-.312,4.286,4.286,0,0,0-1.63-3.1A4.415,4.415,0,0,0,83.5.162a4.221,4.221,0,0,0-1.98,1.17C81.249,1.633,81.689,2.076,81.957,1.775Z" transform="translate(-68.71 0.017)"/><path class="a" d="M69.459,71.5a.2.2,0,0,1,.261-.05c.46.234,2.119,1.423,2.627,1.774a.337.337,0,0,1,.077.381,7.515,7.515,0,0,1-2.068,2.987,3.862,3.862,0,0,1-2.863,1.141,4.659,4.659,0,0,1-1.436-.411c-.189,1.434-.321,2.487-.562,4.129a5.344,5.344,0,0,1-.258,1.009,1.909,1.909,0,0,1-1.151,1.384c-1.3.627-3.421.257-4.943-.2a21.079,21.079,0,0,1-2.866-.983.581.581,0,0,1-.308-.32.65.65,0,0,1,.052-.4l.75-2.115a21.427,21.427,0,0,0,.735-2.144,7.621,7.621,0,0,1-1.225.4.392.392,0,0,1-.45-.255A30.013,30.013,0,0,1,54.8,73.976a3.267,3.267,0,0,1,.145-2.186,11.27,11.27,0,0,1,2.916-3.544c.033-.046.066-.091.1-.136a12.835,12.835,0,0,0,1.261-1.683c.08-.193.174-.329.237-.51.075-.212.358-.253.576-.156a16.459,16.459,0,0,1,1.586.73,17,17,0,0,1,2.5,1.791,3.836,3.836,0,0,1,.331.308c.1.119.2.237.263.319a8.028,8.028,0,0,1,.764,1.055c.456.74.687,1.255,1.139,1.946.355.5.854,1.049,1.36,1.081.612.039.867-.511,1.166-.945.149-.216.247-.424.349-.572" transform="translate(-46.136 -55.442)"/><path class="a" d="M64.04,145.557a3.048,3.048,0,0,1-.21-.359c-.007-.015-.013-.03-.021-.045-.019-.035.024.061.01.024l-.029-.073q-.034-.091-.064-.183a6.3,6.3,0,0,1-.193-.736.315.315,0,0,0-.384-.219.321.321,0,0,0-.219.384,4.118,4.118,0,0,0,.57,1.521.312.312,0,1,0,.54-.315Z" transform="translate(-53.09 -121.462)"/><path class="a" d="M55.794,81.133a23.376,23.376,0,0,0-1.724,1.739,5.813,5.813,0,0,0-1.307,2.4A6.018,6.018,0,0,0,53,87.8c.2.859.424,1.714.7,2.553.136.421.269.969.812.982a2.472,2.472,0,0,0,.788-.186c.211-.07.419-.152.626-.234a.322.322,0,0,0,.219-.385.315.315,0,0,0-.384-.219,8.614,8.614,0,0,1-1.083.367c-.165.041-.194.047-.246-.107-.062-.185-.125-.371-.184-.558-.24-.765-.447-1.541-.627-2.322a5.634,5.634,0,0,1-.259-2.193,5,5,0,0,1,1.12-2.142,22.474,22.474,0,0,1,1.762-1.785c.288-.281-.154-.723-.442-.442Z" transform="translate(-44.467 -68.377)"/><path class="a" d="M64.139,68.785a9.177,9.177,0,0,1-.981,1.306,6.367,6.367,0,0,0-.924,1.44,6.217,6.217,0,0,0-.19,3.566,23.548,23.548,0,0,1,.516,3.3,6.363,6.363,0,0,1-.13,1.63,11.382,11.382,0,0,1-.481,1.467c-.217.574-.42,1.154-.625,1.733L61,84.139a1.064,1.064,0,0,0-.065.872c.209.406.786.565,1.185.71.528.192,1.068.354,1.606.517a15.455,15.455,0,0,0,3.128.683,4.849,4.849,0,0,0,2.822-.455,1.973,1.973,0,0,0,.788-.769,5.384,5.384,0,0,0,.439-1.161,12.344,12.344,0,0,0,.257-1.545q.114-.809.22-1.618.05-.381.1-.761a.314.314,0,0,0-.312-.312.321.321,0,0,0-.312.312c-.134,1.023-.271,2.045-.42,3.066a6,6,0,0,1-.281,1.162,2.109,2.109,0,0,1-.479.869,3.272,3.272,0,0,1-2.27.617,10.923,10.923,0,0,1-2.854-.492c-.549-.162-1.1-.328-1.643-.5a8.241,8.241,0,0,1-1.219-.46c-.062-.031-.161-.07-.194-.139-.042-.088.04-.233.07-.316.111-.316.224-.632.336-.948.192-.541.379-1.083.581-1.621a8.805,8.805,0,0,0,.706-2.927,14.656,14.656,0,0,0-.379-3.139,7.327,7.327,0,0,1-.111-3.728c.388-1.159,1.4-1.908,1.981-2.952.194-.352-.345-.668-.539-.315Z" transform="translate(-51.355 -57.906)"/><path class="a" d="M101.068,102.312a9.917,9.917,0,0,0,.923,1.525,17.36,17.36,0,0,0,1.229,1.559,5.312,5.312,0,0,0,3.437,1.852,3.687,3.687,0,0,0,2.125-.557,6.818,6.818,0,0,0,1.686-1.508,7.014,7.014,0,0,0,1.058-1.582,2.541,2.541,0,0,0,.346-.935c.005-.324-.209-.479-.445-.645-.507-.355-1.013-.714-1.525-1.062-.226-.154-.453-.307-.687-.45-.27-.166-.612-.324-.867-.031s.177.745.442.442c-.075.086-.132-.036-.06.029a.547.547,0,0,0,.091.053c.082.049.162.1.243.151.2.13.4.266.6.4.42.287.836.579,1.252.872l.221.155c.032.022.064.048.1.068a.224.224,0,0,1,.043.03c-.065-.087-.021-.028-.031-.012a2.357,2.357,0,0,0-.122.312c-.058.134-.118.266-.182.4a6.379,6.379,0,0,1-.916,1.366c-.833.959-1.935,1.989-3.312,1.887a4.571,4.571,0,0,1-2.972-1.585,15.543,15.543,0,0,1-1.2-1.5,9.973,9.973,0,0,1-.939-1.548.315.315,0,0,0-.428-.112.32.32,0,0,0-.112.427Z" transform="translate(-85.244 -84.64)"/><path class="a" d="M82.284,64.827c.052-.12.114-.233.171-.351.026-.055.058-.2.109-.225s.132.017.176.034c.141.052.276.118.414.176a10.683,10.683,0,0,1,1.324.651A15.644,15.644,0,0,1,86.7,66.73a8.232,8.232,0,0,1,1.665,2.223c.254.45.491.914.784,1.341A3.1,3.1,0,0,0,90.3,71.406a1.187,1.187,0,0,0,1.39-.263,8.656,8.656,0,0,0,.863-1.285c.222-.337-.319-.65-.54-.315a9.122,9.122,0,0,1-.733,1.123.638.638,0,0,1-.955.027,4.26,4.26,0,0,1-1-1.288c-.265-.456-.51-.923-.787-1.372a7.991,7.991,0,0,0-1.7-1.995,14.988,14.988,0,0,0-2.332-1.627,13.581,13.581,0,0,0-1.6-.726.691.691,0,0,0-.976.419c-.061.138-.137.268-.2.407a.323.323,0,0,0,.112.428A.315.315,0,0,0,82.284,64.827Z" transform="translate(-68.94 -53.669)"/></svg>